/* XPM */
static char *_935f3f270b3440caa0b5f509c4fdce2pkaZlYZdrZ5PM5e4[] = {
/* columns rows colors chars-per-pixel */
"50 50 254 2 ",
"   c #AFA6A1",
".  c #B3AAA5",
"X  c #B0A7A2",
"o  c #B1A8A3",
"O  c #B2A9A4",
"+  c #B5ACA7",
"@  c #AEA5A0",
"#  c #B9B0AB",
"$  c #B6ADA8",
"%  c #B4ABA6",
"&  c #B7AEA9",
"*  c #ADA49F",
"=  c #B8AFAA",
"-  c #A89F9A",
";  c #BAB1AC",
":  c #AAA19C",
">  c #BCB3AE",
",  c #A59C97",
"<  c #A09792",
"1  c #BEB5B0",
"2  c #A69D98",
"3  c #A49B96",
"4  c #ACA39E",
"5  c #BBB2AD",
"6  c #C0B7B2",
"7  c #ABA29D",
"8  c #A39A95",
"9  c #C1B8B3",
"0  c #A9A09B",
"q  c #A29994",
"w  c #9E9590",
"e  c #9F9691",
"r  c #C2B9B4",
"t  c #9D948F",
"y  c #C4BBB6",
"u  c #978E89",
"i  c #BDB4AF",
"p  c #C3BAB5",
"a  c #C6BDB8",
"s  c #A19893",
"d  c #CAC1BC",
"f  c #BFB6B1",
"g  c #A79E99",
"h  c #958C87",
"j  c #938A85",
"k  c #9C938E",
"l  c #948B86",
"z  c #928984",
"x  c #988F8A",
"c  c #9A918C",
"v  c #D3CAC5",
"b  c #99908B",
"n  c #908782",
"m  c #CBC2BD",
"M  c #918883",
"N  c #D1C8C3",
"B  c #CFC6C1",
"V  c #C5BCB7",
"C  c #CDC4BF",
"Z  c #8F8681",
"A  c #89807B",
"S  c #807772",
"D  c #8D847F",
"F  c #C9C0BB",
"G  c #968D88",
"H  c #C8BFBA",
"J  c #8E8580",
"K  c #8A817C",
"L  c #C7BEB9",
"P  c #9B928D",
"I  c #D0C7C2",
"U  c #69605B",
"Y  c #756C67",
"T  c #B1A9A4",
"R  c #D2C9C4",
"E  c #817874",
"W  c #C7BFBA",
"Q  c #CCC3BE",
"!  c #B5ADA8",
"~  c #AFA7A2",
"^  c #887F7A",
"/  c #867D78",
"(  c #B6AEA9",
")  c #D4CBC6",
"_  c #726964",
"`  c #D8CFCA",
"'  c #B8B1AC",
"]  c #CCC5BF",
"[  c #968E89",
"{  c #CEC5C0",
"}  c #8C837E",
"|  c #877E79",
" . c #C3BBB6",
".. c #6E6560",
"X. c #A09A94",
"o. c #6C635E",
"O. c #B3ACA6",
"+. c #857C77",
"@. c #706762",
"#. c #7E7570",
"$. c #ADA5A0",
"%. c #79706A",
"&. c #6F6661",
"*. c #7B726D",
"=. c #7D746F",
"-. c #D4CBC7",
";. c #A59F99",
":. c #BBB4AF",
">. c #B7AFAA",
",. c #A89E9F",
"<. c #ABA39E",
"1. c #9A958F",
"2. c #746B66",
"3. c #948C87",
"4. c #D6CDC8",
"5. c #6D645F",
"6. c #7F7671",
"7. c #675E59",
"8. c #BDB7B1",
"9. c #776E69",
"0. c #DCD3CE",
"q. c #A89D98",
"w. c #7C736E",
"e. c #837A75",
"r. c #7A716C",
"t. c #AEABA4",
"y. c #D5CCC8",
"u. c #8B827D",
"i. c #958E88",
"p. c #A49C97",
"a. c #DDD5CF",
"s. c #DCD5D3",
"d. c #D9D1CC",
"f. c #847B76",
"g. c #685F5A",
"h. c #A39B96",
"j. c #6A615C",
"k. c #9C948F",
"l. c #C4B9B4",
"z. c #716863",
"x. c #615853",
"c. c #CAC7C0",
"v. c #BDB4AD",
"b. c #A9A29C",
"n. c #D1CECA",
"m. c #D5CECD",
"M. c #B9B0AA",
"N. c #D8D3CD",
"B. c #A79D9D",
"V. c #9D9891",
"C. c #CBC0C1",
"Z. c #C6C2BC",
"A. c #BBB4B3",
"S. c #D9D0D0",
"D. c #DFD7D3",
"F. c #B2AAA5",
"G. c #CAC2BD",
"H. c #D5CACB",
"J. c #D1CCCC",
"K. c #C0B9B3",
"L. c #837C77",
"P. c #A79F9A",
"I. c #B2A9A2",
"U. c #9E9593",
"Y. c #B5B1AD",
"T. c #E5E1E0",
"R. c #B6B0AA",
"E. c #F1ECE9",
"W. c #C1B5B1",
"Q. c #DED5D0",
"!. c #CDC7C7",
"~. c #C7C0C0",
"^. c #E3DDDA",
"/. c #625A57",
"(. c #D9D4CE",
"). c #C2BAB6",
"_. c #D4CDC9",
"`. c #DCD9D3",
"'. c #C0BEB7",
"]. c #A29A9A",
"[. c #A6A49D",
"{. c #A39E9C",
"}. c #D5D3CD",
"|. c #B8B4B2",
" X c #E2DBD6",
".X c #CFCACA",
"XX c #BBB7B5",
"oX c #A19897",
"OX c #8C8681",
"+X c #C9C1BC",
"@X c #88847E",
"#X c #B0AAA5",
"$X c #BFBDB6",
"%X c #D0C9C7",
"&X c #E3DDDD",
"*X c #CCC2BF",
"=X c #C5C4BE",
"-X c #A79D9B",
";X c #C1BEB9",
":X c #ADA9A2",
">X c #A2A09D",
",X c #D4D2CF",
"<X c #9C9390",
"1X c #645C58",
"2X c #D3CFCE",
"3X c #D0C8C8",
"4X c #B6ACA8",
"5X c #9F9595",
"6X c #D9D3D3",
"7X c #ABA7A3",
"8X c #DCDAD7",
"9X c #C3C2BA",
"0X c #B9B4AE",
"qX c #655E5B",
"wX c #908C85",
"eX c #8E8485",
"rX c #938D8D",
"tX c #9C9293",
"yX c #8B8A88",
"uX c #988F8B",
"iX c #B2ACAC",
"pX c #EBE5E5",
"aX c #AEA9A9",
"sX c #C7C6BF",
"dX c #ABA6A0",
"fX c #D8CDCE",
"gX c #CFCDC5",
"hX c #AAA49E",
"jX c #918984",
"kX c #9B9192",
"lX c #D7D5D2",
"zX c #ABA1A3",
"xX c #948F90",
"cX c #807978",
"vX c #A5A4A2",
"bX c #C9C4C4",
"nX c #B6B5AD",
"mX c #B2A8A9",
"MX c #DCD6D6",
"NX c #CFC5C5",
"BX c #A29898",
"VX c #B9B7B0",
"CX c #B5B3B1",
"ZX c #E0D8D7",
"AX c #B6ACAB",
"SX c #AAA4A3",
"DX c #B0A6A7",
"FX c #A8A7A0",
"GX c #938C8A",
"HX c #D2C8C9",
"JX c #DAD5D1",
"KX c #96928C",
"LX c #B0AFAD",
"PX c #DED4D3",
/* pixels */
"L y F X ; 6 5 ; 1 t - & = >.- O + c P # . . O o o O T &._ z._ @.z.9.@.=.g 7 # % $ 3 $ + - a ,X7X! V ",
"9 1 L   , > i 1 + n @ 5 f 1 O # # P , 6 % @ *   X   ] Y *.r.Y _ %.e.r.6.0 y p p r 2 r ; % m T.|.7 & ",
"> ; X 2 * m a 6 = c c : : w < * , J   d > o o 5 . * f z.2.5...j.%.z S S . r f 9 p D G 0 s Q 8X=X# M.",
"  > O ; w l f./ +.D ; . T 3 4 + * X . ; 9 9 O X X o #Xg././.1XqX6.6.U Y X . i 1 r z G @ X B ^.Y.* - ",
"& a y m D %.%.*.E b - 0 x 8 F.0 5 7 8 ; = i * *   o g #.GXxXrX{.E 9.e.#.k * : 7 : ^ s : 2 L Q.Q 1 1 ",
"X y p 9 D w.S =.K , u G M b s ~   4 - & # % o o   + - a D.MX6XpX~ 4 C 6 a d Q G.a.% n e h V Q.+ 4 e ",
"2 h.3 * / +.K w.S 3 7 < M b 2 * & # A G h P k e q [ h { %X.X!.6X+ % f > # 1 1 i y # ^ j u y ) @   , ",
"I  .X # k 1 y p A w q b Z c 0 s o @ =.3   % O = $ $ < H v y.-.a.o X $ O   . 1 p i + h x | 1 R : @ 6 ",
"F v ; = 2 6 9 r q t D z M h u u   - k p X   o o O f 7 r ) R I ` ;.e $   O O X = > O r.L.+.;.:.X.b.X.",
"d N # r $ 9 6 V e s k u h z Z j . 7 q & @ @ X   % % - # N C { d.4 u : - - : : g 3 b V.[.}.gXn.,XlX;X",
"H N # 6 $ 6 f y e 0 e K Z h jXS n Y k X * o X O # + : + ` R 4.0.- u   0 - 7   <.! 3.O.Y.}.n.n.J.2X2X",
"N N + # 5 > O = o 9 7 - > ).8.R.Z.dXl & % % . O + $ @ z P.t , ( n , $ X   + + X a  .+ A.S.H.H.H.fXNX",
"7 < n l < 3 8 s P q 3 H p l.! :XR.Z.A . 0 0 @ * : : - k :.# = B <.2 $ & # r $ + > ~ : -X-.v -.y.y.L ",
"0 5 P t % . # . # + . r p 9 8.O.:X8.D $ @ p.u.: o 5 n x O * $ & P.K s 2 X - 8 s 3 b j u 4 M.> v.v.q.",
"8 # 2 u u + ; > ; X q i & 4 ' ;XK.:.. F y 6 u # = 9 $., & O 1 p e k 5 O.t.' 0X&   D   = > > > M.5 , ",
"w # z < &   6 9 6 & 8 ' ( ( O.1.X.1.M X g k.z < s g k G 2 3 2 g P O d ; l.W.W.& v.t % > 5 p 5 @ & 3 ",
"4 ; h 8 b   = 5 ' w q D.` ` N.c.t.X., i ( >.K.t b S K A M i.P z 9.M w 4 q.x u t u f., 2 , @ - % O w ",
"* . ^ 7 O a B { H F  .C F d a B  X:.e 3 < w t l 3.e P t w h.g L , E z } i.1.L.f.e k 7 4 - u.t : Z 9.",
"X & g x y . & f ; . W d m m *XF Q  Xq o ~ ; - ; k u.Z Z n D J t @ * ; X g g M w F = a a 6 4 K 8   X ",
"@ @ o k 5 o   ; % o >.d C d C I B d.X o @ o   O : } z j j z l x s 3 X   $ = X s > o $ $ + 3 / $ @ @ ",
"@   . g * o $ & + . @ B N Q C I N ) h.@ % # - . 2 } j M Z l M u x < % @   + 1 - X O . o # 2 h 6   o ",
"$ O o q * o   ; #   0 V L V a y L = k # * % 8 . < K z M M n n M j 3 O X   * + , G < s s k n 8 p $ @ ",
". o % w @ . 4 . $ ; h j w q o o ( i.b 9 O @ q = k / x h l l l G l q .   X X X   < % = i X.l : # f i ",
"X *   Z 7 # ; ; & + j 1 & + = 6 = 6 Z D Z E e.< A *.S w.=.S E E Y , O X o . % @ * V d H % X . i o O ",
", = < c + 2 0 7 3 0 M M.5 @ I.& 5 % ^ x.U 7.E x P 0 l t 0 * o ; b.b & 4 : 2 < +.x h.b e | ~ V # X e ",
"* H V ; . u s o X 4 8 5 I.I.. & 6 = J U @.@.S h n c s 4 + . O . W S Z p.$.X <.SXiXJ.oXg._ :.d W F -.",
"4 + . f = 0 e ! b.hX;.#Xb.;.( - : g #.x.g.x.2.J ^ J J : o   @   # S @ y.R ) D.&XaX.Xs.%.E i f 1 f G.",
"0 9 1 i = 0 T nX[.FX>XLXXXCXc $.( >.T O.! # T S M l *.: o   O + $ n i C d d C m.bX~.^.[ _ $ #   + f ",
"<XAX-XU.U.5XPXN.(.(.`.JXs.E.).# i & & & = & W w X # t 8 %   . % & D 6 B m B N m.3X~.ZXt Y 7 o . @ ( ",
"kXzX5X,.,.tXC.N m m V d C 0.f * O o + 4 @ 7 = k.- O e 8 O X   4 O j y { m { 4.S.3XC.PXu *.+ 9 > 6 = ",
"oX].,.B.,.DXHX-.N m d I R d.+X$ = + $ %   4 & k.q.+ t < . X @ X + 8 H C m m N ` *XF 0.x r.0   $ . g ",
"eXBXB.,.mXB.C.-.) B I I d B H 4X% i & X . @ + u 3 & t e . X   . f b 1 m F Q C C X M.` } 2.> 5 f .   ",
"A Z 3.w G uXH v ` v v N I 4.* x - 7 O g w w b *.8 $ < < .     O & M 2 5 = % 4 5 x G D l G 2 & ; 7 b ",
"A z c 2 w P O p r = 1 @ 2 q 2.3 & * $ +   * $ h k $ q < O X o o . k F.5 &  .7 K.Q { . 5 . . = 6 +X_.",
"j < q e 4 q   H i # > > % + e 3 &     o o @ % t c $ q s O X % * O w 0     $ 4 O O p ; r > 1 % 9 p Q ",
"G b n | A #.t * 4 q , * : e j w #   . * @   o u b . , < o   @ @ o e : o + + x c , 4 e     4 8 : * q ",
"% : 0 q [ { F a a # i.3 , * x _ 6.e.=.x 7 :   u P # 0 2 ( T O T $ 8 4 . X X n < < 7 7 - - 8 < 5 + $ ",
"p 9 $ X & d.R I v ) w # . a > j...U &.c % * o X S wX@XOX1.KXV.V.w J : o * - h X 2 : 0 - - < = a y y ",
"r 5 % + . I B d N V +.7 o - M 2.&.Y @.j 7 - g A k.'.9XZ.=XsXc.`.K.&.8 3 , x z * G J l < e j % p 6 r ",
"i 1 5 O 4 N B B 4.f t & $ o @ o *   h < $ @ # l * a.) v ] ] ] N a.4 5 . 4X5 . * X # 9 y F # : L V 9 ",
"2 8 < 3 +.^ A | K E 8 O . % o     . 0 q . o ; , , v v ) Q d d d ) k 3 3 X.h , u r a y a d 9 A u l g ",
"= % = $ K 1XU U j.7.w %   . o     O g - % . + 3 - ) F N C C B v ` T 6 1 ] V i 5 O = $ . o 3 %.Y n r ",
"o o X % Z j...&.&.7.G + * o +   O   7 , . # 5 - c B m v N N m B F - ; . i  .9 . s ; > V + ' ( A i p ",
"% @   % ^ g.....5.7.D & X O . O o . - q X % o & / } b c < X . + 8 t >   # & $ 2 : F p L V > I & l.6 ",
"# o @ ; J U 5.5.o.U =.@ : 2 X : , <.@X{.7X<.X > 2 i > = > r r 9 f + y f L . 6 - 2 V 1 p = 5 F > 1 p ",
"% ;   @ 6.z._ 5.o.o.o.Z 2 p.z :   OXyX>XvXF.. p.q y y y p r r a a o 9 9 $ - $ t < 9 1 y X $ V t * X ",
"h s , X 8 Y U 7.o.o.@.u c X X T c.$X-.N.0.s.S.E.XXf 9 r # = 6 H m 8   5 P./ : 3.b q s , j O = D c b ",
"j l s 5 $...w.f.Y U / z } Z ,   VX$XL { R %X!.T.|.f y r & @ 1 5 1 J x - % X a C Q & > f $.> 1 t 2 < ",
"z h e * x $ H W W 3.j z j G 8 R.'.t.L v v m.J.&X].> f 6 o $ ; + + K n t h w = 6 i . # = > r 1 j g 4 ",
"| J n K 7 = & @ X w | } u.A < T t.1.* r 5 ' A.A.cX3 3 , , 2 g 0 g #./ A / ^ 0 : * , % . * 2 8 #.J x "
};
