/* XPM */
static char *images_1__1_1675378957[] = {
/* columns rows colors chars-per-pixel */
"75 50 84 1 ",
"  c #002C75",
". c #012D7B",
"X c #01327D",
"o c #012E82",
"O c #023284",
"+ c #02358C",
"@ c #02388F",
"# c #013791",
"$ c #023B94",
"% c #0A3C94",
"& c #023E9B",
"* c #083E99",
"= c #003FA1",
"- c #03419D",
"; c #0B429C",
": c #0343A4",
"> c #0946A4",
", c #0348A7",
"< c #0849A7",
"1 c #0346AA",
"2 c #0847A8",
"3 c #034AAD",
"4 c #094BAB",
"5 c #0447B0",
"6 c #024CB3",
"7 c #084CB3",
"8 c #014EB9",
"9 c #0351B6",
"0 c #0A51B4",
"q c #0253BC",
"w c #0955BB",
"e c #0359BF",
"r c #0A5ABE",
"t c #004EC0",
"y c #0155C3",
"u c #0957C4",
"i c #025AC5",
"p c #0A5BC4",
"a c #0057C8",
"s c #025CCB",
"d c #0A5DCA",
"f c #025ED0",
"g c #085FD2",
"h c #0263CD",
"j c #0A62CD",
"k c #006ACE",
"l c #0264D3",
"z c #0964D2",
"x c #016CD4",
"c c #0A6BD5",
"v c #0967D8",
"b c #036DD9",
"n c #0A6DD9",
"m c #126FD7",
"M c #0172D5",
"N c #0078D7",
"B c #0274DB",
"V c #0A73DC",
"C c #027BDC",
"Z c #097ADC",
"A c #0375E1",
"S c #0A77E0",
"D c #027CE2",
"F c #0A7DE3",
"G c #0B7EEB",
"H c #0082DE",
"J c #0284E3",
"K c #0983E4",
"L c #038AE5",
"P c #098CE7",
"I c #0583E9",
"U c #0C84E9",
"Y c #058DE9",
"T c #0A8CEA",
"R c #1284EA",
"E c #118BEE",
"W c #0791EB",
"Q c #0B92EC",
"! c #0F8FF0",
"~ c #128EF0",
"^ c #0E92F0",
"/ c #1295F3",
"( c #179BF6",
") c #1499F8",
/* pixels */
"hkkkkkkkkkkMMkNMMMMZCZCCNBCNCNNNNCCHHHHJJJHCHHHJJJJKIJHKHZCCZNBMMMkMMkMkkkh",
"hhkkMkMkNZMNHNmHHZZZZKZNZCZBZNBNCCCHHHHJJHHHHCHHHJHJHJCCCZNMMMMMMMMMkMMkhhh",
"hkkkMkMMZmHZmHHHKKKCHJZNNBNCCNZNHJJJJLIJPLLJJHHJHCHHCCHCCCZCNZNNZNNMMMkkkkh",
"kkkkMcMMMNZNHHmHKDNZCZCZNNNNZZHHLLKTTTPTTTKPILJLHJHJJHHCHJHFKDFFDCBNMMMkkhk",
"kkckMcMMMMMNMMHMZZNCCCHCDCDKKKREKLKLTKTPLTLKLILJJJLHHJHCCCCCCCCNNCNBMMxMkhk",
"MkkkkMcMMMNNNNNHHHHCKFHCFJCJCHHJLJLJJJJJLJJIJJJJJHHHLHHHHHCCNCNCMMMMMMkkkkk",
"kkcMMMMMNZNZZNZZKJHKKHHCJCCNCZCCJJHLJJHHJJLLLLLJLLLLLLHJJJJCJCJCMMMMkMkMkkk",
"kMMZZZVNNMNNNZNHCCHHKKJHKHHCCHHJJLJLLJHJJLLTTTYYLLYYLLLLPJJKJJCCZZNMMMxMxkk",
"xxxxxxbMZBDCCCNBNCHJKPKPRPHHHHLPLPYYLLJHLLLLLLYYWWWLYTKLJJJJCDCCMMMMkkkkMkk",
"xbxMNBNBBCBCDCDCCHHHJHCHHHHHHHHHHJLLLLLLLLJLLLLLLLLLPYYJHHHHNNNMMMMkkMMMkkk",
"xxxBbbMBBbBDDDDDJJJLJHHCHHHNHHHHHHJLLLLLLHJLLJLLLLJLLLLJHHCCNNMMkMxxxkMckhh",
"xxxbxbBxBBBCDDJJDCJJJILJHHHHHHHHLLLLLLLLLLLJLJLLLJHHJJHHCCCCNMMMMMMMMkkxkhh",
"BbBbbBBBBBBDDDDJCNCHJJLLHLHHHHHHQYWWLLLLLLLLLLLLJHHHHCNNNCCNNNNNMNMMMMckkjh",
"xxxMBBBBACDCDDDJJLLJJJLLPPPPLLLLYWWYWWWWWLLWLLLYLJHHCCNNNNNNNMNNMMMMMcMccjj",
"lxxxbbBNDBCADDDJTQYLLLLLLPPYPPPWLLLLLLLLYWYLYLYLKLJJHHCZNBNZNNBBMMMMnckxhhi",
"xxxbBBBADBCCDDJITYPLLJJJHHJJPPPPLLLJLLLLYLLLLLLYQPIIIIJHDDFCFZVBVBVMMkhhee9",
"bBBBbbMxBDDDDCCDJHHHHLPQPHHHLPPPHLLYLHHHJLIJLLIIIILLJDDDDSDFFZZBSbxhsihihih",
"xxbxxBMBBDDJJDLINHHHHLPQPHHHHPPPPLLLHJLLJJJJDJJJDDDDDDDJBDZAZBMBxbllhhhhhhj",
"hlxxbbBBBDDFDJDIHHLWPQQPQPHHHPPPPLHHLLLYIJJJDJDDDDDDDDCBCBBNMxkchhhhhhhhhii",
"lxxbbBBBADDDDDDDPWQQQQQQQPLLHHHPLLPWWPIJJJJJDDDDIIIJIDDDDABMkkkkklxxvxljhhi",
"vbnbVVBAZDDDDDDJPPPPQPPPQQQQPPLLPPWQ^^PLDDDJDDJIDIIDIIUGBNMMMkMccmVVmmcjhei",
"xvbnVBbBBAFUUUUTLLHLPLLLQQQQQWWQWPLHJLIJJJJIIIIIIIIDDANBBxbMMZVMccmckkhhhei",
"hllxvxbbBBFFKURTHHPPQQWPPWWWPYWQHHHHDJJDIIIIIDDIIGDAABxxxbMbMMckhhhhhieieee",
"shhhlxlxxbBBBADDHHQQ((QQLLLLLHLQHHHHTPJCDDDDDDAAABBBBABBBBMckhhhhhhehjrhijr",
"yyasslxxlhlxlxxxHHHHPTTTJHCHHJJHHHLILIIJIIDDDAABABAAADBBBnVVVmckmcjheeee998",
"shhhhlllBVVBSSSDHHHNNCJLLJHHJLHHPPTKUIIKIDDDAAbAbBBAASSSbbcxckkheeeeeeeeq96",
"szllznnnVSSSFFFGKHMMMMNCNNCL^^))/RKKJDCJAAAAABAAAAABABbbVbcxkjjk9eeee999966",
"dsgzznnVnbnBVSSSZHRR~~EE~///)/^TPPJHDCBBBBBAADAADFDSAbxxllhsiiiehhree999998",
"gdfssssslvxbbBBBMZKRRRRUU~!TTIJDDDDDDDAAADAGGGGGAAABAAVBlxxjhhiieerrrrrreww",
"tayyaaaylhhxxxxbkkxkhkkkkxxNCNCCBCBBNBBBAADAAAAAAAABbbxvbncccccje9eeeeew096",
"tttaafllhhlhlxxxZMnMMMMBNCCCMMMMDBBNBBBAAAAbAbbbBbbblhhssiaieyeeee99663633,",
"ddgdgdszlllvxlbljMVZRRRRSDKFFJUTUUDABBADAAAAAbbblllshhhshsyyeeiie99663633,3",
"qqeepipjassfllblbbnbVBVVFKKZCNNNbbbAAAAAAAAAAvAvbbbbbbzzhaeq88863633331::==",
"96968898saffflfllxvnbcBMhhkkxxxxBBAAAAAAbbbAvAbvvvvvlllhcjiiiye999866322>*&",
"3669q9iiaafsfffflcnnVnbbVMVBZBBBABAbAbbblblbvvvvlbvflllhssieyqq8999977442>-",
"3309wpppjjgggvzlhllxvclxcbbMbMbxbbbbbblbblllvfvvffffhsaayeqqq8639393,,:>>;-",
"333339689eqyyaaayaaiashhsshhllbblbbllllbblllllllffaaaay8yt88qq65333,==&&&$$",
",,,3399988888yyylgshffllbblbbbbbblbbbblblbblllffafsaayuyyt887766333,22=>&*$",
":,,370wwwrudddjdzzzzzzzlvvlllflllbbbbbblllbllllfffgddsuu886665556344722>**%",
":-:::,:1366qqqyu8yyssaayssfsflllbllbfblffllllllfaaauau8uu7655777:::-:>**%#+",
"---<<>3,7679qqq8yyyauasaasssfllvlbfllllllflllssaauyuuu887865555=:-----$$%@@",
";;;->><,456076886688q8t8yqyysfvvflllbllssffffssaaytytt8687555152---$$$#++OO",
"$$$$$-:<24453666wyupdpdduaiaadfgfllvzlhssasassaayyqqq8765651=2=2--$$$@+oooX",
"+@@$$;;;244546471577wwquduuaasadlfflzllassfssssayqqqwq96551155=2---@$$@+OoO",
"@@%%;;;;22224437=::315568888yysdghslljhggssdsaaaye8qqw8667412=2=--$-%%+%+OO",
"O+@%*;***=>:1,1,7400wwww7888qqpihfhsslgzfsaaaayyqq8q9q967641=2=:--$@+%OOoo.",
"oOo++@##$&&:::::1,400977qqq8qyuissshzdzsasaytyyyqqqqqw966111::1=&$##++OOo..",
"oOoooO+@#$$&*::::::,,:3111578qpsssszzzsssaiiyasuyeqewww9111:=:=:*$##++OO...",
"....oOoO+@@$$$*&-:-:,:::111668998yasfgfasayyy8queyq868661:==-&=&$$#@+OOXX  ",
"   ...OOO+++#$$$&&&-:-:&=:113679qyadggfasytyqqquye9869631:=-=-&$$$#@+OXX   "
};
