/* XPM */
static char *ba4d63ea504b47d4e2e5d7644ff88780NDRPKSwnbVkWPkpF[] = {
/* columns rows colors chars-per-pixel */
"50 32 256 2 ",
"   c #F6F6F6",
".  c #F4F4F5",
"X  c #F5F5F6",
"o  c #E795FE",
"O  c #FFFFFE",
"+  c #E791FF",
"@  c #FFFFFB",
"#  c #FAFAF7",
"$  c #FDFDFE",
"%  c #FBFCF9",
"&  c #E79AFC",
"*  c #FEFEFE",
"=  c #F3D7FC",
"-  c #E788FC",
";  c #F8F8F8",
":  c #C7BFE0",
">  c #E78CFE",
",  c #FCFDF8",
"<  c gray96",
"1  c #FDFEF9",
"2  c #FAF9F9",
"3  c #F9F9F6",
"4  c #E797FD",
"5  c #F2F2F4",
"6  c #C1BFD9",
"7  c #F0B6FA",
"8  c #FBEFFC",
"9  c #6301F0",
"0  c #E47BFE",
"q  c #F2B8FA",
"w  c #6A01F1",
"e  c #E8E8ED",
"r  c #BE9CFE",
"t  c #710EF2",
"y  c #5F00EF",
"u  c #B798FE",
"i  c #EAEBEF",
"p  c #F3F4F2",
"a  c #BA9CFD",
"s  c #FDEDFD",
"d  c #6600F0",
"f  c #0000B4",
"g  c #EEF0EF",
"h  c #791DF3",
"j  c #F1C6FB",
"k  c #812DF6",
"l  c #FCF2FE",
"z  c #EEB9FC",
"x  c #0001BB",
"c  c #873DF8",
"v  c #B994FA",
"b  c #750EF2",
"n  c #6904F0",
"m  c #B397FD",
"M  c #EDB1FB",
"N  c #F5F4F6",
"B  c #F6F7F4",
"V  c #B68EF8",
"C  c #8D4FF8",
"Z  c #CAC2E3",
"A  c #9167F9",
"S  c #B095FC",
"D  c #E484FC",
"F  c #EBAEF9",
"G  c #E1E2E8",
"H  c #D9CCF7",
"J  c #6E02F2",
"K  c #0000AC",
"L  c #C0A0FE",
"P  c #A494DB",
"I  c #5900EE",
"U  c #7B1EF2",
"Y  c #F1F2EF",
"T  c #EEBDFB",
"R  c #761FF4",
"E  c #9465FB",
"W  c #7004F1",
"Q  c #FEF5FC",
"!  c #BE9FFF",
"~  c #C39FFF",
"^  c #D9DAE5",
"/  c #E272FE",
"(  c #D0C2F9",
")  c #0000A5",
"_  c #E7A7F9",
"`  c #BCACF6",
"'  c #7629ED",
"]  c #6A0FF2",
"[  c #CBC9DE",
"{  c #E5DEF8",
"}  c #843FF6",
"|  c #EFC2FB",
" . c #CFC0F6",
".. c #F2E8F8",
"X. c #BB9AFC",
"o. c #9E81FE",
"O. c #A789FF",
"+. c #B896F4",
"@. c #8848F3",
"#. c #EAD0F4",
"$. c #CFCBE2",
"%. c #C2A9FA",
"&. c #02019D",
"*. c #A892EC",
"=. c #E57DFF",
"-. c #7012F0",
";. c #A68AF7",
":. c #B899F8",
">. c #7E2CF5",
",. c #CEBFE7",
"<. c #7A2EEE",
"1. c #E3D7F8",
"2. c #A298DB",
"3. c #AE9CE5",
"4. c #BBB2DB",
"5. c #8B54F8",
"6. c #C9C7DD",
"7. c #0D0BAF",
"8. c #9460FA",
"9. c #7524F6",
"0. c #7E30F6",
"q. c #9477F8",
"w. c #A9A3DD",
"e. c #DCDCE8",
"r. c #FAE8FC",
"t. c #D2D0E2",
"y. c #D3BFF9",
"u. c #A194D9",
"i. c #E68EFD",
"p. c #EDEDF0",
"a. c #C1A3F9",
"s. c #000053",
"d. c #AA6CF4",
"f. c #5100EB",
"g. c #7A37ED",
"h. c #AFACD6",
"j. c #6666A5",
"k. c #3B3FBC",
"l. c #272792",
"z. c #7F59E9",
"x. c #9E93D4",
"c. c #B9B8D4",
"v. c #DED1F5",
"b. c #5A5ABF",
"n. c #2111CE",
"m. c #3C2BC7",
"M. c #8172E4",
"N. c #B0A5F6",
"B. c navy",
"V. c #F2EFF8",
"C. c #504E9D",
"Z. c #9574FD",
"A. c #8F5DF8",
"S. c #C3B5FB",
"D. c #9E8CF2",
"F. c #531FD9",
"G. c #000092",
"H. c #9F8EEA",
"J. c #DEB9F6",
"K. c #7574C5",
"L. c #393A97",
"P. c #8D41F0",
"I. c #5C55D9",
"U. c #0807B3",
"Y. c #0A0A98",
"T. c #2D31BE",
"R. c #EEE0FC",
"E. c #8B8BCA",
"W. c #9C85EF",
"Q. c #B0A1E0",
"!. c #4E3CDC",
"~. c #A1A2CD",
"^. c #7C7CB2",
"/. c #D9C4EB",
"(. c #B08DF9",
"). c #090DBE",
"_. c #00006E",
"`. c #473ACD",
"'. c #A57FF1",
"]. c #C6A7F0",
"[. c #904DF9",
"{. c #A25BF1",
"}. c #E0DCF6",
"|. c #B6B7D7",
" X c #8D61DB",
".X c #9379DB",
"XX c #A79ED9",
"oX c #C9C1E1",
"OX c #701CF4",
"+X c #7037EA",
"@X c #3A39D3",
"#X c #CFCCE5",
"$X c #171695",
"%X c #4A3C9C",
"&X c #2328C9",
"*X c #F8E3FC",
"=X c #1F22CE",
"-X c #C7A9F5",
";X c #8689B5",
":X c #BFA0FC",
">X c #8F5BEC",
",X c #7932F5",
"<X c #6A59DA",
"1X c #8538F5",
"2X c #AC8BF7",
"3X c #654CE1",
"4X c #9C4FF2",
"5X c #2D239E",
"6X c #AF7CF6",
"7X c #BAA2FE",
"8X c #5117E3",
"9X c #A883FD",
"0X c #4546D0",
"qX c #00005F",
"wX c #A896F9",
"eX c #7F33EB",
"rX c #7623EF",
"tX c #00008B",
"yX c #CBBAF6",
"uX c #B291FE",
"iX c #B593F2",
"pX c #8D4BF9",
"aX c #E8BAF7",
"sX c #A691FD",
"dX c #813DF6",
"fX c #AB82FD",
"gX c #B4A5DB",
"hX c #CDD5E3",
"jX c #A383F5",
"kX c #E78EF8",
"lX c #EBA1FB",
"zX c #CBAEFB",
"xX c #BFB9DA",
"cX c #6C18F1",
"vX c #8E48EC",
"bX c #F5E3F9",
"nX c #B7ACD8",
"mX c #D3C7E6",
"MX c #CEC6F8",
"NX c #0205A1",
"BX c #7817F5",
"VX c #9346F1",
"CX c #C5AEF9",
"ZX c #E2E7E5",
"AX c #CDCBE2",
"SX c #EDC9F9",
"DX c #0A10C4",
"FX c #8739EF",
"GX c #8243F6",
"HX c #6F11F3",
"JX c #792CF7",
"KX c #BE9AF8",
"LX c #B996FC",
"PX c #C8ABEC",
"IX c #EB9AFB",
"UX c #DCC9EC",
/* pixels */
"                                    X N X X X X X X X X X X N X                                     ",
"                              X   2 , , # # # # # 3 3 3 # # % , 2   . X                             ",
"                          < ; , < i e.$.oX: : : : : : : : Z $.^ e . 1 ; X                           ",
"                        . % e 6.oX,./.#.= = = = = = = = = = #.UXmXt.6.i % .                         ",
"                      . % e 6 5 Q Q s r.s s s 8 8 8 l l l l s 8 R.y.iXP g % .                       ",
"                    . % e 6 2 O O $ @ bXM z z z T | | j j j Q y.V LX~ v P g # .                     ",
"                  . % i 6 2 O $ * $ O _ / =.0 0 0 0 0 0 =./ 7 { v L r ~ v P g 2 .                   ",
"                . % i 6 2 O $ * * O *XD - - - - - - - - - - kX..a.r ! r ~ v u.Y 2 .                 ",
"              X # p.6 ; O $ * * * @ M D > > > > > > > > > i.D j ( LXL r X.r (.u.Y 3 X               ",
"            X 2 g 6 ; O $ * * * O r.i.+ + + + + + + + + + + > lX1.X.:XX.u u u ;.u.p ; X             ",
"              < c.3 O $ $ * * $ @ z i.4 o o o o o o o o o o 4 + SX%.a m m S S L uXx.3 X             ",
"            X # AX,.8 1 O O $ O 8 & & & & & & & & & & & & & & o F  .m S u ! a .X%Xh.1 <             ",
"              X , : PXzXH $ O O T + o o o o o o o o o o o 4 4 4 IXJ.7X! ;.<X5Xs.;XO .               ",
"                X , 6 ].fX2XyX..q 7 q 7 7 q q q q q 7 7 M M F F _ aXH.`.7.G.qX^.O .                 ",
"                <   B xX-X9XA jX1 H CX%.KXV 6Xd.{.4XVXP.FXeX<.' ' *.).K NX_.j.O . X                 ",
"                  X ; p 4.a.O.A  .v.E E C c k U b J w d 9 y y f.vX0Xf 7.B.C.@   <                   ",
"                    X 2 p.nXa o.q.V.:.E 8.[.c k U b W J w 9 y -.M.x U.tXL.  ; .                     ",
"                      . % e gXX.Z.` { A 8.pXc k h b W w d 9 I >X&Xf &.l.i , .                       ",
"                        . , G Q.m q.}.:.5.C c >.h b W w d I rXI.x ) $Xe.@ 5                         ",
"                          . 1 ^ 3.O.wX1.A.C } >.h t n d 9 y z.DXK Y.[ @ 5                           ",
"                            . 1 t.3.o.MX+.GX} k h t J d I <.@Xf &.|.O 5                             ",
"                              . 1 [ *.sXH 5.dX0.R t w 9 n 3Xx ) ~.O 5                               ",
"                                N 1 : W.S.iX,X0.R t n y g.=XK E.@ 5                                 ",
"                                  X # 4.D.( @.JXR t 9 -.!.f K.@ .                                   ",
"                                  X ; 3 w.N.V 9.9.HXw +Xx b.@ X <                                   ",
"                                    < ; B 2.` @.OX] U n.k., ; .                                     ",
"                                      . 2 p.w.'.cXBX8XT.p 3 .                                       ",
"                                        . % G XX1X] m.G @ .                                         ",
"                                          . % ZX XF.hX@ 5                                           ",
"                                            . @ #XZ @ 5                                             ",
"                                              . , 1 .                                               ",
"                                                N .                                                 "
};
