/* XPM */
static char *_8c1d480_32b6_4618_9cfd_d49a52b224e8_85c9c43eaf4cf2619997d1c41bbcddbd_removebg_preview__1_1675379035[] = {
/* columns rows colors chars-per-pixel */
"50 50 202 2 ",
"   c None",
".  c #433533",
"X  c #593D37",
"o  c #B82E17",
"O  c #BE3A26",
"+  c #C01E0E",
"@  c #C32C0F",
"#  c #CE330E",
"$  c #C22911",
"%  c #CA2D16",
"&  c #DF2E1D",
"*  c #CC331B",
"=  c #C8361A",
"-  c #D93013",
";  c #DC3B15",
":  c #D3391F",
">  c #D63916",
",  c #EB2F1F",
"<  c #E3361C",
"1  c #EE331F",
"2  c #E2381B",
"3  c #EB3A1D",
"4  c #E23C13",
"5  c #F53F1E",
"6  c #CC3021",
"7  c #D53124",
"8  c #DD3C23",
"9  c #DC3827",
"0  c #E72D23",
"q  c #EC2F23",
"w  c #F62621",
"e  c #F72D26",
"r  c #F92D24",
"t  c #E43224",
"y  c #ED3324",
"u  c #E43B24",
"i  c #EC3A23",
"p  c #EC362A",
"a  c #E43C2D",
"s  c #ED3C2C",
"d  c #F23523",
"f  c #FA3225",
"g  c #F33D24",
"h  c #F93C25",
"j  c #F2352C",
"k  c #F9332A",
"l  c #F43D2B",
"z  c #FB3C2C",
"x  c #EB3C31",
"c  c #EE3F38",
"v  c #F83730",
"b  c #F33F32",
"n  c #FA3E32",
"m  c #A64A32",
"M  c #DF401F",
"N  c #D3421F",
"B  c #E84116",
"V  c #EB411A",
"C  c #E9491F",
"Z  c #E4421E",
"A  c #F44E1F",
"S  c #F2521F",
"D  c #CF402B",
"F  c #C14C2D",
"G  c #D74726",
"H  c #DD4323",
"J  c #DF492C",
"K  c #E44322",
"L  c #ED4325",
"P  c #E44B24",
"I  c #EC4B23",
"U  c #E7462E",
"Y  c #EC432B",
"T  c #E24C2A",
"R  c #EC4C2C",
"E  c #F24523",
"W  c #FA4423",
"Q  c #F44C24",
"!  c #FB4B24",
"~  c #F4422B",
"^  c #FB452B",
"/  c #F34C2C",
"(  c #FB4D2D",
")  c #EE5126",
"_  c #E6532E",
"`  c #EE542B",
"'  c #EE5A2D",
"]  c #F35224",
"[  c #FA5225",
"{  c #F4542C",
"}  c #FB532D",
"|  c #F55B2B",
" . c #FA5A2D",
".. c #EE4335",
"X. c #E44932",
"o. c #EE4C33",
"O. c #ED433A",
"+. c #E74C39",
"@. c #EE483B",
"#. c #F24333",
"$. c #FA4334",
"%. c #F44D33",
"&. c #FC4E34",
"*. c #F9453A",
"=. c #F44B3B",
"-. c #FA4C3C",
";. c #F4433C",
":. c #EE5732",
">. c #E25B33",
",. c #EE5B34",
"<. c #E5503A",
"1. c #E75C3D",
"2. c #ED5C3A",
"3. c #E65634",
"4. c #F45434",
"5. c #FB5434",
"6. c #F45C33",
"7. c #FB5C33",
"8. c #F5533B",
"9. c #FA533D",
"0. c #F55B3A",
"q. c #FB5B3B",
"w. c #F4612F",
"e. c #FB642D",
"r. c #EF683C",
"t. c #F46334",
"y. c #FB6333",
"u. c #F66A36",
"i. c #F96935",
"p. c #F5633B",
"a. c #FA633B",
"s. c #F46B3C",
"d. c #FB6A3C",
"f. c #F5723C",
"g. c #EE4B43",
"h. c #EF4D4D",
"j. c #F24D44",
"k. c #FB4E40",
"l. c #F94346",
"z. c #EF5743",
"x. c #ED5A45",
"c. c #E75D49",
"v. c #EA5C4F",
"b. c #F35544",
"n. c #FA5443",
"m. c #F55E43",
"M. c #FB5941",
"N. c #F5544C",
"B. c #F35B4B",
"V. c #FA5E4A",
"C. c #F85449",
"Z. c #EF5956",
"A. c #F75C55",
"S. c #DC6A4C",
"D. c #EF6145",
"F. c #EB6840",
"G. c #F66242",
"H. c #FB6345",
"J. c #F56C44",
"K. c #FA6C43",
"L. c #F5634C",
"P. c #F96449",
"I. c #F56B4B",
"U. c #FC6D4C",
"Y. c #F57344",
"T. c #FB7145",
"R. c #F6744B",
"E. c #FB714A",
"W. c #F27848",
"Q. c #F66553",
"!. c #FA6453",
"~. c #FB6A53",
"^. c #F86958",
"/. c #F56D57",
"(. c #E87654",
"). c #F57553",
"_. c #FA7452",
"`. c #F47A56",
"'. c #FA7B54",
"]. c #F9715A",
"[. c #F77C5C",
"{. c #FB7E5C",
"}. c #F35F60",
"|. c #FA6C61",
" X c #FB6460",
".X c #FC7265",
"XX c #F57C61",
"oX c #FB7D63",
"OX c #FC7C6C",
"+X c #F76E70",
"@X c #FA7676",
"#X c #FC8156",
"$X c #FB805D",
"%X c #FB836B",
"&X c #FA8868",
"*X c #FD857C",
"=X c #FC8A79",
"-X c #FC9375",
";X c #FC7F81",
":X c #FC8484",
">X c #FB858D",
",X c #FC8C8B",
/* pixels */
"                                                                                                    ",
"                                                                                                    ",
"                                                                                                    ",
"                                                                                                    ",
"                                                          W.r.                                      ",
"                                                            f.u.t.F.                                ",
"                                s.u.s.                  W.u.  s.i.u.J.                              ",
"                            K.y.e.                        f.i.u.'.i.G.b.+.                          ",
"                          0.6.6.    K.Y.f.                    Y.J.y.%.x ..v.                        ",
"                      x.%.~ o.X.8.6.y.i.                        K.a.4...s B.                        ",
"                    &XL.4.Q L Y 8.{                                 G.p./ R p.                      ",
"                    R.6.4./ V V P                                     ,.y.u.d.).                    ",
"                  d.i.y.4.Z ; N                                       r.) u.K.[.                    ",
"                u.w.u.t.P >                                             C S ' r.        s.s.        ",
"                i.| ) ; #                                                 P t.| 6.        7.        ",
"        J.`.    d.y.P $ o             X       J.s.                          t.d.K.        ~ %.      ",
"        p.      a.a.H O             (.>.p.y.| | ] | e.u.K.m .             u.e.d.T.        p n       ",
"      8.4.        t.| s.          a.G.|  .[ ] ) ) ) ] [ e._ F         t.t.K.e.'.I.      Y e p       ",
"      ~ l         ).#XY.6.`.S.J.{ [ I ] ! A ] [ ] ] ] A [ 6.{ I.).1._ 6.q.7.y.R.        L q   6.t.  ",
"      h d u       '.-X$XK.W.3.6.Q C L E V A ! ! A [ [ [ ! [  .} 5.:.I ) I [ d.J.      3.I l   /  .  ",
"  #.  ! h u         '.R.| E.a.! L 1 1 d d -.9.E h E ! ! ! ! [ [ [ } 4.C B R XX        R 6.    L {   ",
"  s     / 7           R.| 4.8.g d 1 y , j =.s d d d g W g E E A Q ( P.P 4 K         8 E p.    p %.  ",
"  i     4.t             P.V.~ l %.V.L.P.g g 9.9.^ d d d y i 3 E W ! ( 0.,.        7 p j.    s p O.  ",
"  Y R     l u           0.=.$.~.%X{.U.{.U.5.$X{.7.! h h *.N.j.s g ~ &.!.<.  o % < p h.      E b     ",
"  { I     A.B.P Z = G Y l =.V.oX&X$Xd.a.T.y.'.&XK.y.} ( 5.9. X+Xg.d n C.U = @ H x.        Q / N.    ",
"    ] I       I.0.I K E -.A.V.U.{.&X#XK.d.d.T.d.y.y.y.e.q.H.|.;X>X}.c A.A.J H D.        I { I.      ",
"    6.` T           6.E ~ ^.~.q.K.%X-X{.d.d.E.y.y.U.T.U.oX=X*X@X;X>X@XN.Q.1.          & { R.        ",
"        w.U               D Q.9.&.n.~.M.M.U.oXE.U..XP.q..X,X,X,X,X*X.XM.} { = $ * 7 & ~ _.          ",
"          G...U K K 8 : % o 9 n.^ ^ n f *. XV.-.k.A.$.k k l.@X:XOXP.V.9.6.P - 2 i i n Q.            ",
"                0.{ { L i a 6 c.9.9.^ z n n r k k v k e w e *.*.$.;.k.%.I B Q / =.                  ",
"                      :.8.L.x.2.6.U.a.5.( ( h f f k k k r k v z k $.Y X.T                           ",
"                    0._.%XU.7. .{ )  .a.7.7.7.( ( &.$.z z *.C.C.k.L K }  .4.R                       ",
"                  o.].%XH. .{ _ : - Q d.i.y.d.d.d.K.q.7.5.5.4.R R 2 2 3 / [ ( #.                    ",
"                O.N././.    ` ) { 0.8.                  J.K.4.Q W W A 5 u   9.C.o.`                 ",
"              #.;.j.      [ 7.y.'.=X                        '.U.E.5.h ^ b       P.|                 ",
"              0.j.      Q [ 7.7.I.XX                          d.[.].-.n #.        K.{               ",
"              p.8.      L / ! 6.                                    b.j.#.~       J.p.              ",
"              m.L.      N.x b.                                      x d E ! {     `.P.4.            ",
"            ..~ :.      Z.x =.Y                                       l W W !       8.#.            ",
"              q a         d V E E                                     l d h 5 i     ~ y             ",
"              p a         ~ 3 g i a s %.a.                            O.y , y ..    p q             ",
"              @.a         #.y i p 0 y ! 7.                            t s d s       o.%.            ",
"                o.        g.p j b p g }  .                          Y 3 3 3 Y       6.J.            ",
"                  R         =.%.%.%.} y.                              I I           t.              ",
"                                p.a.                                              :.                ",
"                                                                                                    ",
"                                                                                                    ",
"                                                                                                    ",
"                                                                                                    ",
"                                                                                                    "
};
