/* XPM */
static char *exit11675243787[] = {
/* columns rows colors chars-per-pixel */
"50 53 256 2 ",
"   c white",
".  c #FEFEFE",
"X  c #F9F9FA",
"o  c #FEFDFF",
"O  c #F2F3F2",
"+  c #DCD2C8",
"@  c #C7BEB5",
"#  c #FEFFFC",
"$  c #FDFCFC",
"%  c #DDD3C9",
"&  c #CDC6C6",
"*  c #794525",
"=  c #C4BBB1",
"-  c #EDEBE9",
";  c #753F1F",
":  c #BDB4AB",
">  c #D0C7BD",
",  c #794322",
"<  c #C1B8AF",
"1  c #B5ACA3",
"2  c #764421",
"3  c #77441E",
"4  c #723D1D",
"5  c #E9E4E3",
"6  c #C4BBB0",
"7  c #73411A",
"8  c #7F4B26",
"9  c #BCB2A7",
"0  c #EDEDEB",
"q  c #D9CFC5",
"w  c #824820",
"e  c #F3F2F1",
"r  c #894D24",
"t  c #D7CEC3",
"y  c #D2C8BE",
"u  c #F0EEEC",
"i  c #C1B7AB",
"p  c #E9E9E7",
"a  c #D6CCC2",
"s  c #C7BDB2",
"d  c #BAB1A9",
"f  c #DBD4CB",
"g  c #CAC0B5",
"h  c #7C4721",
"j  c #854C22",
"k  c #76401B",
"l  c #C3BAAE",
"z  c #CEC5BA",
"x  c #824C25",
"c  c #C7C0B8",
"v  c #DCD1C6",
"b  c #6F3B1D",
"n  c #CDC3B8",
"m  c #72421E",
"M  c #FEFFFA",
"N  c #DFD5CA",
"B  c #D3CBC2",
"V  c #79421C",
"C  c #844F29",
"Z  c #E3DFDB",
"A  c #E4E1DE",
"S  c #B6AEA7",
"D  c #F5F4F1",
"F  c #6E4220",
"G  c #C3BBB3",
"H  c #6F3F1D",
"J  c #DDD8D1",
"K  c #B8B0A8",
"L  c #E0D9D0",
"P  c #F9F9F9",
"I  c #A89E93",
"U  c #754623",
"Y  c #7B4A25",
"T  c #653917",
"R  c #743E21",
"E  c #B1A79D",
"W  c #D1CECC",
"Q  c #683B1B",
"!  c #E5DBDB",
"~  c #E7E2E1",
"^  c #B2AAA1",
"/  c #C9C2B8",
"(  c #ADA59B",
")  c #B8B0A3",
"_  c #713D1A",
"`  c #7F451F",
"'  c #EAE2DC",
"]  c #BFB9B1",
"[  c #8A5026",
"{  c #CBC4BB",
"}  c #724421",
"|  c #DED5CC",
" . c #7D4726",
".. c #D3CAC0",
"X. c #6C3C17",
"o. c #E5DFD7",
"O. c #DEDAD5",
"+. c #EBEAE4",
"@. c #A1998E",
"#. c #EAE7E2",
"$. c #D2C7BC",
"%. c #E0DAD9",
"&. c #CDC1B4",
"*. c #E7E4DE",
"=. c #C7C0B0",
"-. c #DBD5D3",
";. c #5A3215",
":. c #D1C9C8",
">. c #D8D2CB",
",. c #E2D8CD",
"<. c #7E4823",
"1. c #C1BAB7",
"2. c #ACA299",
"3. c #E2DBD4",
"4. c #633719",
"5. c #D7D1D1",
"6. c #E9E0D7",
"7. c #6B3E1F",
"8. c #AEA89F",
"9. c #C8C2BE",
"0. c #99592E",
"q. c #4F311A",
"w. c #A49B92",
"e. c #A8A197",
"r. c #7E471C",
"t. c #532D11",
"y. c #D2CEC7",
"u. c #905226",
"i. c #F7F5F5",
"p. c #8A5129",
"a. c #B3AA9E",
"s. c #FCFAF7",
"d. c #94542C",
"f. c #C2B8AA",
"g. c #F1EDE9",
"h. c #804B22",
"j. c #411E06",
"k. c #B5AB9D",
"l. c #CCC5C1",
"z. c #F9F7F5",
"x. c #A8988A",
"c. c #69523A",
"v. c #AFA497",
"b. c #653D1E",
"n. c #5F361C",
"m. c #8C5526",
"M. c #5B3F28",
"N. c #5E3419",
"B. c #603A1D",
"V. c #E5DDD4",
"C. c #54361E",
"Z. c #BDB3B3",
"A. c #955327",
"S. c #48240C",
"D. c #A09385",
"F. c #A19380",
"G. c #5F3514",
"H. c #A0968A",
"J. c #D0C9C2",
"K. c #452108",
"L. c #553016",
"P. c #B3A395",
"I. c #EFE7E1",
"U. c #989085",
"Y. c #A99B8D",
"T. c #ABA195",
"R. c #D4D0CF",
"E. c #957F69",
"W. c #522D0C",
"Q. c #502F12",
"!. c #5F3E21",
"~. c #86786B",
"^. c #5C300D",
"/. c #8D7F70",
"(. c #8F5729",
"). c #4C2A10",
"_. c #D5D0CA",
"`. c #65331E",
"'. c #915123",
"]. c #90775E",
"[. c #573011",
"{. c #A69282",
"}. c #C0B6B6",
"|. c #BCAEA3",
" X c #623311",
".X c #78634F",
"XX c #938C84",
"oX c #965422",
"OX c #82705F",
"+X c #A18F7E",
"@X c #8D725B",
"#X c #84654A",
"$X c #C4B4A6",
"%X c #8A4C2C",
"&X c #816753",
"*X c #7C4B29",
"=X c #998D7F",
"-X c #7F634B",
";X c #93592D",
":X c #7F5C46",
">X c #8D5022",
",X c #B46E23",
"<X c #FFAB0D",
"1X c #C89118",
"2X c #9F8776",
"3X c #9E5E23",
"4X c #6D492B",
"5X c #725941",
"6X c #F3EAE4",
"7X c #BBAB9A",
"8X c #5B442C",
"9X c #FBAE1F",
"0X c #F57C0F",
"qX c #CB912E",
"wX c #F8B114",
"eX c #A66625",
"rX c #968A7B",
"tX c #945A28",
"yX c #D7C9B8",
"uX c #744E2C",
"iX c #8F4B1A",
"pX c #714627",
"aX c #F1CA22",
"sX c #E87217",
"dX c #E79F29",
"fX c #755D43",
"gX c #B0660C",
"hX c #D17D13",
"jX c #F1EE34",
"kX c #D2B032",
"lX c #DF952A",
"zX c #FFDD14",
"xX c #F0BA30",
"cX c #CA8223",
"vX c #EDA416",
"bX c #FAD42D",
"nX c #BD7A15",
"mX c #D7BB2F",
"MX c #DBA62E",
"NX c #CEA120",
"BX c #D98D19",
"VX c #AD7327",
"CX c #D7C53D",
"ZX c #B17218",
"AX c #FECE18",
"SX c #C5A992",
"DX c #F7E916",
"FX c #D9AC3A",
"GX c #E08521",
"HX c #B47E29",
"JX c #8A6C55",
"KX c #7B4F19",
"LX c #F3DD32",
"PX c #DCAF39",
"IX c #6E5C49",
"UX c #A2601A",
/* pixels */
"                              o o .   $ P P u +.#.W 5.0 X o     o # # M #                           ",
"                          .     s.u I.6.V.6.% g V.E { J o.#.u D s.  o o o                           ",
"                            P I.o.L % N N N t l ,.q ,.| % f | L o.I.z.o o                           ",
"              .   o o   $ - J % + % v % | | B < L | % % % % | | % % L I.z.  # # .                   ",
"              .   $ . i.%.v v % % + t + N N ..9 ,.+ % % % % % N + q + v L g.z.M #                   ",
"                . # g.J >.+ % % + + N % + N ..a.,.+ % % % % % + + ..+ % N =.]   o .                 ",
"              o . 6Xv v + + + + % + + v q + z ( N a q t q v + + + + + + + T.y 6.s.. .               ",
"              # u >.q v q q q v $.q y.f ,.6.f 8.' V.6.6.o.f B a q q t ,.^ < | a o.s.. o             ",
"          .   +.1.f a t t t t + = 1 ' yXSX2X@X:X#XJXE.{.$X,.I.V.....% s E N B t _.#.# #             ",
"          # $ Z K 9 N a t t J.O.6.2X#XuX2  X;.n.L.;.^.^.;.uX].&.5 | ..e.t t a t t f e . .           ",
"            0 y.+ E $X+ y ..6.q ].b.[.m x  . .*Xb *X<.Y } F G.!.].% 1 = v y a B a a L D             ",
"        o $ J t y q I $X>.O.&.-XQ.4.m 8 8 C x x _ 8 x x C *XH F Q.c.) 3.$.y y y y ..c O.  .         ",
"      o   u B @ z ..a H.@ &.fXB.b.} Y C <.8 <.Y H Y <.<.h.U H *Xb.G.-Xn _.> y y y $.J.Z   .         ",
"      . # *.z s g y $.J.E E.W.7.U h.h 8 h 8 <.<.7 Y  . .8 pXm h.m Q W.@X,.a > > $.$.> >.P . .       ",
"        u d $.$.> > { 3.f.4X^.F Y ` h  .h  .* h 2 * * * 8 7.} w 7 pXT n.7X3.n > > > { J.g.  . .     ",
"    .   e y n z g / y.O.E.L.B.F Y 3 ,  .* * * * * * * *  .b.U w m U F t.&XO.t { z z z z 6.o o #     ",
"    .   0 $.n n n / J $.5XW.pXF 2 3 2  ., * * * * * * *  .b.} ` m 3 U ;.M.f.3./ n y y g J . o #     ",
"    .   5 z n =.&./ o.|.!. X} 7.m 7 ; , R 2 R ; , , , 2  .B.} ` m V U Q t.+X*.{ &.n g z f $   #     ",
"        A &.g z g / *.D.Q.X.Y w p.[ p.d.C p.C h.h 7 ; ; U B.pX, m 2 3 F ).&XL a s g s z >.i.  M     ",
"        o.&.g g s > Z E.G.p.;X0.0.0.;X0.(.tX0.tXtX(.C , } B.pX; m } 3 F Q.c.$.L = @ @ g q i.  M     ",
"      . O.$.n g s J.3.@X_ A.A.d.d.d.(.0.m.(.oXoXoXA.d.d.C X.k 4 F H k F Q.8Xi o.@ z z g > D   M     ",
"        ] T.E ) 9 >.3.-XX.%X%Xr r r m.A.m.m.d.r [ u.'.A.p.h.r k 7.H _ Q L.C.I | ) 2.I H.@.p   M     ",
"        %.6 1 ( @.I ( :XT eXqXqXPXCXMX3X[ p.u.h.r u.>Xu.C h.tX[ V X.T Q N.C.D.8.2.^ d : c i.  M     ",
"        Z s @ c g > l.#X`.,X9X9XaXLXxX3XC %Xu.h ` u.>X>XC h.>Xr p.h. X4.N.q.x.' B g / = / z.  M     ",
"    .   %.i = ] : B >.:Xn.,XbXjXwX1XFXoXC x m., k [ >X>X*Xh.>Xr r p.k T ;.q.=XL @ = y i > $ . M     ",
"    .   %.9 6 < : > O.&X^.1XzXDXAXBXZX>Xj h.[ 2 7 [ j [ Y h.r r r r w Y [.q.F.L c : < 9 c # . M     ",
"    .   5 : s i ) d ] c.`.nX<XwX<XhXUXKXj *X[ 2 3 r j C Y x j j j h.` C T C.H.J = : i ) 8.$ o #     ",
"    .   u i n 9 < @.XX].C.iX0X0XsXgXHX7 j Y j m 3 j w x 2 x w w w h.` 8 Q M.Y.f < : : : o.  o #     ",
"        z.6 |.9 9 < 3./.G.R GXvXNXdXcXT j 2 w 2 , w ` x 3 h.w w w w w <.T M.x.J K 9 : 9 '   o #     ",
"      o $ { |.9 d d f rXN.X.VXkXmXlXeX X8 , ` 3 h ` h <.2 h.r.` ` r.r.h G.c./.D.Y.d K ] u   . .     ",
"      .   -.1 d K S q x.M.X.r.7 k V V 7 * , <.V h h h h m h h h h r.r.2 [.5XS 6 7Xa.S 9.P           ",
"      .   #.9 9 d S a ) 8XG., * * U 3 V , 2 , 3 3 3 3 3 m 2 3 3 2 3 V H L..X] 6 k.T.S _.            ",
"      .   D 9 2.2.w.^ ( IXt.m k k k k 7 3 ; 2 ; ; ; k 3 7 2 ; ; ; 7 7 Q L.OXl.: |.9 K Z   .         ",
"      # . P ^ @.( E : 1.OXQ.H k 7 k ; ; ; R ; ; ; ; ; 2 ; 3 7 7 X.7 ; 4.C./.1 e.2.T.1 0   .         ",
"      # $   _.a.) 1 9 l.~.q.G.4 _ H 4 4 ; 4 ; 4 4 4 4 ; R 4 _ H X.7 R ;.M.x.8.w.w.U.e.i.            ",
"      # $   Z v.k.a.E c =XM.L.H 7.Q H _ 4 _ 4 _ 4 X.b 4 4 4 4 Q T H b L.c.E c ) |.) J   .           ",
"      . #   D ) E k.v.s I c.).7.7.4.b b 4 b 4 b b T _ b 4 _ 4 Q 4.F 4.)..Xi K ( E K +.# .           ",
"          $   l.2.a.P.i e..X).N.b.`.b 4.Q b Q 4.4.;.`.R 7.n.B.N.n.B.[.q.~.@ 1 ( E / s.M .           ",
"          .   #.8.( v.: K ~.q.j.K.K.t.j.S.L.S.K.K.j.K.N.S.j.S.j.).S.j.M.D./ ^ 2.1 J   M .           ",
"              s.9.8.e.f.c ~./.D.x.x.P.P.I P.P.Y.x.F.F.{.F.F.{.+X{.Y.+XOX2.z K ^ s u   M .           ",
"      . #   o e J.] ] s c w.| +.#.+.#.+.R.O.+.#.#.+.- #.p 0 p p p 5 6X: K c @ = 9.u X o             ",
"      . . $ e ' o.3.V.3.L V.' A A Z A A *.5 *.*.*.*.*.*.*.*.*.*.*.' ' ' ! ! ! ! A ~ p i..           ",
"      o   D 9./ n z s @ / n z { c G G G ] ] ] ] G c { B y.y.B L >.c { { l.9.c 9.J.y.c -.  .         ",
"      o   s.1 9 l i i i 6 l : < = = @ < < < < < < 6 < < < 6 < 6 s 6 = = 6 l i l l = d J.  $         ",
"        $ # @ l @ @ s s @ < S : s = @ = = = = = = = = 6 6 = s = = 6 = 6 6 6 6 6 = =.i :.# M # .     ",
"      .   g.1 a.f.f.9 ) a.f.=.f.) l =.=.=.=.@ @ @ @ @ @ s l f.l =.s 6 l = @ g c c g a.S O.s.# o     ",
"        +.:.K XXw.@.U.XXU.@.w.U.XXw.e.( E E ^ ^ ^ ^ a.E I @.H.@.T.I @.U.@.w.T.I e.w.rXK J.-.$ o     ",
"  .   D >.5.5.9.1.Z.1.1.}.}.}.}.}.}.Z.Z.Z.Z.d d d d d K S d K S S S S 1 1 ^ 8.8.( 2.1 :.-.R.A       ",
"    $ A ! ! ! ! %.5.:.& & & & & & & & & & & & & & & & & & & & & & & & & :.:.:.R.-.! ! ! %.! -.u   $ ",
".   0 A 5 ~ ~ ~ 5 5 5 ~ A %.%.-.-.5.R.R.W W W W W W W W W W W R.5.5.-.O.%.A ~ ~ ~ ~ ~ ~ ~ 5 5 5 P   ",
"  P p 0 0 - - - - - - 0 0 u u 0 0 0 0 0 - - p p p p p p p p - p - - 0 0 0 g.0 - - - - - g.g.g.- e   ",
"  i.O O O O O O O O O O O e O O O O O O O O O O O O O O O O O O O O O O O O O O O O O O e e e e O $ ",
". $ $ X P X X X X X X X X X X X X X X X X X P P P P P P X X X X X X X X X X X X X X X X X X X P X $ "
};
