/* XPM */
static char *_4bdd3cd95bc4d7ddb837b2d159e91e7LbnmhoLAGxn2Vkcf[] = {
/* columns rows colors chars-per-pixel */
"50 50 256 2 ",
"   c white",
".  c #F4F5F2",
"X  c #E3E3E1",
"o  c #E1E0DE",
"O  c #FDFEFD",
"+  c #00DC24",
"@  c #FBFCFA",
"#  c #EDEDEB",
"$  c #02DC26",
"%  c #DDDEDB",
"&  c #01700B",
"*  c #F4D38E",
"=  c #F8D690",
"-  c #E8E9E7",
";  c #01D924",
":  c #F0EFED",
">  c #F2F3F0",
",  c #F6F6F5",
"<  c #DCDCDA",
"1  c #00800F",
"2  c #DEDDDC",
"3  c #E6E6E4",
"4  c #01680A",
"5  c #00DB1C",
"6  c #EACC87",
"7  c #EBEAE8",
"8  c #00D919",
"9  c #00770D",
"0  c #01D022",
"q  c #01A319",
"w  c #E7C986",
"e  c #FEFDFE",
"r  c #00D817",
"t  c #009314",
"y  c #ECDFE7",
"u  c #CCCCCA",
"i  c #FFF7FE",
"p  c #015707",
"a  c #008511",
"s  c #A9935D",
"d  c #9C8352",
"f  c #00AB1C",
"g  c #F1F1EF",
"h  c #EFD08B",
"j  c #00C01E",
"k  c #05DC28",
"l  c #004001",
"z  c #FBD991",
"x  c #A68F5A",
"c  c #00B01B",
"v  c #01D522",
"b  c #D3B879",
"n  c #015F08",
"m  c #019715",
"M  c #02610A",
"N  c #DABE7E",
"B  c #02B71E",
"V  c #00A619",
"C  c #00C820",
"Z  c #D9DCD8",
"A  c #D9DAD7",
"S  c #014305",
"D  c #019B16",
"F  c #D5BA7B",
"G  c #E1C482",
"H  c #A18A57",
"J  c #E0E2DE",
"K  c #00B51C",
"L  c #004805",
"P  c #C3AA6E",
"I  c #00D612",
"U  c #005102",
"Y  c #008A11",
"T  c #00D81F",
"R  c #009E16",
"E  c #008F12",
"W  c #005106",
"Q  c #D1D2CF",
"!  c #DDC082",
"~  c #00BB1E",
"^  c #08D728",
"/  c #746236",
"(  c #004B03",
")  c #E6DEE3",
"_  c #F9F3F7",
"`  c #C8C9C6",
"'  c #75653A",
"]  c #C0A76D",
"[  c #FFE399",
"{  c #D5D5D3",
"}  c #00A70E",
"|  c #03D524",
" . c #00C617",
".. c #AD9761",
"X. c #EEE2EB",
"o. c #CBB173",
"O. c #C7AE71",
"+. c #EFF2EE",
"@. c #30DF49",
"#. c #CEB475",
"$. c #F1E4ED",
"%. c #DBD5D9",
"&. c #C5C6C3",
"*. c #C3D7C4",
"=. c #B69E63",
"-. c #D6D7D4",
";. c #027E10",
":. c #BBA36C",
">. c #6AE87C",
",. c #1BDD37",
"<. c #03AD1E",
"1. c #039316",
"2. c #00A616",
"3. c #26DC40",
"4. c #BAA169",
"5. c #04CF24",
"6. c #907D51",
"7. c #2A551D",
"8. c #00B112",
"9. c #114A0D",
"0. c #3FE056",
"q. c #636938",
"w. c #FFDF95",
"e. c #02C520",
"r. c #E8E0E5",
"t. c #806E49",
"y. c #00A00E",
"u. c #00CF1A",
"i. c #39E051",
"p. c #947F4E",
"a. c #A89260",
"s. c #20DC3A",
"d. c #EAF5EA",
"f. c #00BB13",
"g. c #ADA58E",
"h. c #84713E",
"j. c #A49C83",
"k. c #37DF4C",
"l. c #003600",
"z. c #4BE261",
"x. c #16110C",
"c. c #81D08A",
"v. c #7B6945",
"b. c #D6CFD5",
"n. c #C8C4AF",
"m. c #2AC23F",
"M. c #14DB2F",
"N. c #6C6D3C",
"B. c #46E05C",
"V. c #F2EAF0",
"C. c #BFF1C6",
"Z. c #8E7B4B",
"A. c #E3F8E5",
"S. c #06C223",
"D. c #2C1F15",
"F. c #947E48",
"G. c #D6F7D9",
"H. c #71E780",
"J. c #064108",
"K. c #00CB20",
"L. c #B8F2C1",
"P. c #AAE0B0",
"I. c #95E2A0",
"U. c #88764A",
"Y. c #32B742",
"T. c #30D747",
"R. c #3A2B1F",
"E. c #8C8580",
"W. c #BAB29D",
"Q. c #D3DDD3",
"!. c #1E4F14",
"~. c #5FC36B",
"^. c #39C34A",
"/. c #0BB521",
"(. c #92835C",
"). c #A3EEAE",
"_. c #D3CEC1",
"`. c #9DECA6",
"'. c #8ACC90",
"]. c #5E6634",
"[. c #87E692",
"{. c #BADABE",
"}. c #D9D5CA",
"|. c #024B07",
" X c #867347",
".X c #CEB478",
"XX c #B29B60",
"oX c #A4DDAC",
"OX c #AFC1AE",
"+X c #D0F6D3",
"@X c #00BE19",
"#X c black",
"$X c #51BD5E",
"%X c #8BDA97",
"&X c #23CC3B",
"*X c #5CE26E",
"=X c #05560A",
"-X c #82776F",
";X c #4C622D",
":X c #DEF1E1",
">X c #00980B",
",X c #C7BEA3",
"<X c #A5B9A6",
"1X c #1C5114",
"2X c #7FDC8D",
"3X c #86744F",
"4X c #425E29",
"5X c #127C1B",
"6X c #9DE1A5",
"7X c #B4EDBB",
"8X c #251A12",
"9X c #A6CAAA",
"0X c #908465",
"qX c #396639",
"wX c #7F7361",
"eX c #3A5D24",
"rX c #BFE3C4",
"tX c #7BDD88",
"yX c #55DE68",
"uX c #CFEAD4",
"iX c #DBEBDB",
"pX c #65E477",
"aX c #098F19",
"sX c #255519",
"dX c #B3D8B5",
"fX c #695C4F",
"gX c #C7DFC9",
"hX c #0AB020",
"jX c #090101",
"kX c #0ABC25",
"lX c #BACBB9",
"zX c #2C7330",
"xX c #6D5E41",
"cX c #72BE7B",
"vX c #246026",
"bX c #B7BCA6",
"nX c #42AC4D",
"mX c #12C92B",
"MX c #C4B082",
"NX c #C8F1CC",
"BX c #96C298",
"VX c #AB9B6D",
"CX c #458A47",
"ZX c #87AA88",
"AX c #5F533A",
"SX c #978F83",
"DX c #3C3021",
"FX c #B9AD93",
"GX c #41B650",
"HX c #31B245",
"JX c #D3C8A8",
"KX c #8CBA8F",
"LX c #97D69F",
"PX c #10510E",
"IX c #36703A",
"UX c #453829",
/* pixels */
"                            O   e   @ +X`.pX0.3.,.,.3.i.pX`.+X@       O                             ",
"                        @ O     C.H.@.5 r ,.z.H.[.[.H.B.M.r T @.>.C.    O @                         ",
"                      O   @ ).k.T I r *XC.. i i i i i i > L.yXI I T k.).@   O                       ",
"                  @     L.@.r 5 8 @.C.i i , . > . . > . , i i L.3.8 T I @.L.    @                   ",
"                @   , >.5 5 k 5 z.+.i > > . , , , , , , . . . i d.0.8 ^ 8 8 >.@   O                 ",
"              @   A.@.I $ k 8 z._ _ > , . . . . . . . . , , , > _ . 0.r ^ ; I k.A.  @               ",
"            @   +X,.5 k $ 5 3.d._ > . . . . . . . . . . , , , , > _ A.,.T ; ^ r s.G.  @             ",
"          @   G.M.5 k + $ 8 7Xi +.> > > > > . . . . . . . . , , . +.i ).8 ; ; k 8 M.G.  @           ",
"        O   A.,.5 k + $ 8 B._ +.g g g g g g > > > > > > . . . . > > > _ i.8 $ ; k 8 s.A.  O         ",
"          @ i.8 k + + $ 5 `._ # : : : : : g g g g g g g > > > > g g +.i I.r $ ; ; k r i.O e O       ",
"      O   >.I k + + + + M.iXV.# # # # # # : : : : : : : : : : : : : : > uXk + ; + ; k I >.e O       ",
"        :X; + + + + $ 5 @.7 7 7 7 7 # # # # # # : : : : # : # # # # # # - 3.5 $ + ; ; T ^ :X  O     ",
"      O 7 @.5 $ + + $ 8 z.V.3 - - 7 7 7 7 7 7 # # # # # # # # # # # 7 7 V.0.5 $ + ; $ 8 k.%.@       ",
"  e   +.$.*Xr $ + + $ 8 z.$.3 3 3 3 - - - - - - - - - - - - - - - - - 3 V.0.8 $ + + k r pXy 3   e   ",
"    @ J $.2Xr $ + + $ 5 B.X.X X X X X 3 3 3 3 3 3 3 3 3 3 3 3 3 3 3 3 X 7 i.8 $ + + $ 8 [.$.< @     ",
"e   7 Z $.I.r ; ; ; $ 5 3.X X X X X X X X X X X X X X X X X X X X X X X J s.T $ + + $ 5 6X$.< 7   e ",
"  @ A % X.oXT | v ; ; T ^ gXr.X X X X X X X X X X X X X X X X X X X J r.rX; ; + + + $ 5 P.X.% A @   ",
"  # Q 2 y P.u.v v v v | r %XX.% o o o o o o o o o o o o o o o o o o J $.tXr ; + + + $ T P.y 2 { 7   ",
"  < Q % y oXu.0 0 0 0 | u.T.X 2 o o o o o o o o o o o o o o o o o o o J 3.8 | ; + + $ 5 oXy % { A   ",
", u -.% y LX .K.K.0 0 0 5.u.%XX.Z 2 2 2 2 2 2 2 2 2 2 2 2 2 2 2 2 Z X.2Xu.| v ; + + $ 8 I.y Z -.u , ",
"# u -.Z y c. .e.e.C C C C C mXgX) Z % % % % % % % % % % % % % % Z ) {.^ 0 v v ; + + k r tXy A { u # ",
"o ` -.Z y ~.f.S.j j j e.j e. .m.Q.) A < < < < < < < < < < < < A ) Q.&Xu.5.0 v v ; + k r yXy -.{ u o ",
"{ ` -.Z o ^.f.~ ~ ~ ~ j ~ ~ S.@Xm.*.y < A < < < < < < < < A < y {.&X .5.0 0 0 v v ; ; 8 T.2 A { u { ",
"u u { 2 *./.K B K K K B B ~ ~ kXf.kX'.2 y 2 Z A A A A < 2 y % c.S. .e.C K.0 0 0 | | | v 5.*.2 Q u u ",
"` u Q ) '.} <.c c c c c c B K K B K 8.m.'.*.< ) r.r.) % *.c.m.f.@Xj j j e.C K.0 0 0 0 5. .c.) Q u ` ",
"&.u Q 2 GX} <.f f f f f f f f c f c <.8.} hXY.$X~.~.$XY.hX8.8.B B B ~ ~ j j e.C C C C e.@X^.< Q u ` ",
"&.` b.9XR V V V V V q q q q q q q q q q q R y.y.y.y.y.} V <.f f f c c K K ~ ~ j j j j ~ B 8.9X%.` ` ",
"&.` %.nX>XD R R R R R D D m m m m t t t t t 1.1.1.1.1.m m D D R R q V f f c K K K K K c <.2.HXQ ` u ",
"&.b.KX>X1.t t t t t t t E E Y a a 1 1 1 1 1 1 1 a a a a a Y Y E E t m D R q V V V V 2.2.q q y.cXb.Q ",
"%.<XaXY Y a 1 1 1 1 1 1 1 ;.9 9 & & & & & & & & 9 9 9 9 9 ;.;.1 1 a a Y E t m m D D D D D D q V BXy ",
"lX5X9 ;.9 9 & & & & & & & & 4 4 M n n M M M M M 4 4 4 4 4 & & & & 9 9 ;.1 a a Y E E E t t D q 2.hXrX",
"dX4 4 4 4 4 n n n n n n n p p p p p U U U ( ( ( W U W U p p p n M 4 4 & & 9 9 ;.1 a a Y t m q f /.NX",
"@ zXU p p p W W W W W W W |.|.( ( L 9.sXeX;X].q.q.q.q.].;XeXsXPXW U p M M 4 4 & & 9 ;.a E m q } ^.  ",
"  ZXl =XL L L L L L L L L l l 9.4XN.U.H H d d d d d d d p.d d U.N.4X1X( U p n n 4 & 9 ;.Y t q } 6X  ",
"  , vXl L S S S S S S l l !.q.p.H x x ' p...a.s s s s x s Z.' H H d Z.N.7.L U p n 4 & 9 a 1.>XY.@ e ",
"@   *.l l J.l l S S l 9.q.d x s ..:.6.E.wX4.] ] ] ] ] P =.wXE.6.=.x x H d N.1X( p M 4 & ;.Y 1.uX  @ ",
"  @   <Xl.l J.l S S sX6.x x ..:.] b t.{ E.] ! N ! N N G =.SXQ v..X:.4...x x 6.7.( p M & 9 1 dX  @   ",
"    @   OXJ.l.J.S 9.6.s ..4.O.F ! * t.-XfXG z * * * * z o.fX-Xt.* N F o.:...H  X9.W M n 5X{.  @     ",
"      @   Z qXl.l.7.a.=.O.b G 6 h [ v.R.UX6 z = z z = w.b DXR.U.[ * h w N O.s Z.!.l U CXiX  @       ",
"        @     OXqX7.:.o.F ! w 6 h [ v.8XDX6 z = = = = w.b D.8Xt.[ = = * 6 N P H !.IXOX    @         ",
"          O e     n.4..XF N G 6 6 [ v.jXD.h z = = = = w.N x.jXt.[ * * h w N O.H bX    O O           ",
"              @   . ] o.b F ! w 6 [ 3X#X8X* z = = = = z w x.#X6.[ h h 6 G b ] x :   @               ",
"                  @ MXP .Xb N G 6 z .Xx.xXw.* = = = = = w.AXx.! z h 6 w N #.XXVX@                   ",
"                e   JXXXO.#.F ! w h z w * = * = = = = * = * w z h h w G b O.x ,X  e                 ",
"                e   : s =.P #.N G 6 h * * * * * * * * * h h * 6 6 w G F o.4.x 7   e                 ",
"                  e   n.F...] o.F G w w 6 w w 6 6 6 6 w 6 w w G ! N #.P =.F.,X  e                   ",
"                    e   W.h.F.s 4.P o.#.b b b F F F F b b #.O.P ] :...d h.FX  O                     ",
"                    e O   _.(.' '  Xp.H x s s s s a.a.a.x H d p.Z.h.h.(._.  e e                     ",
"                        e   O }.g.0Xt.' / / / / / / ' / / ' ' t.0Xg._.@   e e                       ",
"                          O e     e 7 }.n.W.g.j.j.j.j.g.W.n.}.7 O     O O                           "
};
