/* XPM */
static char *istockphoto_472235974_1024x1024_removebg_preview__1_1675378913[] = {
/* columns rows colors chars-per-pixel */
"50 50 225 2 ",
"   c None",
".  c #81502D",
"X  c #BC4939",
"o  c #966533",
"O  c #BF5E53",
"+  c #B15548",
"@  c #996946",
"#  c #A0714C",
"$  c #B96955",
"%  c #B57E52",
"&  c #D35847",
"*  c #C75E4E",
"=  c #C86557",
"-  c #DD6D5B",
";  c #DA6855",
":  c #DD735C",
">  c #DA7253",
",  c #DC6B4B",
"<  c #E06C59",
"1  c #D46D63",
"2  c #CC7269",
"3  c #D87868",
"4  c #D67C74",
"5  c #CF7A73",
"6  c #E37A66",
"7  c #D2943D",
"8  c #BB895F",
"9  c #BA8254",
"0  c #B68D53",
"q  c #9A8778",
"w  c #BC926A",
"e  c #C1935B",
"r  c #D59E51",
"t  c #C18F5B",
"y  c #D9A555",
"u  c #CDA459",
"i  c #C79769",
"p  c #D3827B",
"a  c #DB8379",
"s  c #D88E7E",
"d  c #CA9D75",
"f  c #CF9574",
"g  c #E5826D",
"h  c #E38574",
"j  c #E48D7C",
"k  c #E88977",
"l  c #E7917D",
"z  c #DAA667",
"x  c #D4A97D",
"c  c #D2A477",
"v  c #DAB779",
"b  c #E1AD67",
"n  c #E5B46A",
"m  c #E7BD79",
"M  c #837685",
"N  c #71BEB2",
"B  c #6FB5A2",
"V  c #978B97",
"C  c #A9988B",
"Z  c #BA9C98",
"A  c #AE9F99",
"S  c #B5A596",
"D  c #9E92B1",
"F  c #AB9EA4",
"G  c #A19CB8",
"H  c #83BAA5",
"J  c #9DA7BA",
"K  c #ACA3AF",
"L  c #A8A0A6",
"P  c #BBA9A9",
"I  c #A6A9BB",
"U  c #B3ABB4",
"Y  c #B4ABBA",
"T  c #B5B1BA",
"R  c #BDB5BB",
"E  c #BAB3B2",
"W  c #A2BFA4",
"Q  c #C39785",
"!  c #DA9B87",
"~  c #DB8981",
"^  c #E98F80",
"/  c #E39B89",
"(  c #E69482",
")  c #D2AC8B",
"_  c #D7A787",
"`  c #D6B988",
"'  c #C5A598",
"]  c #D7A798",
"[  c #CCB599",
"{  c #DDBC93",
"}  c #D2B49D",
"|  c #DAB696",
" . c #EAA28C",
".. c #E7A58E",
"X. c #E8AA95",
"o. c #ECB29A",
"O. c #E3B498",
"+. c #CEBAA4",
"@. c #C9B7A9",
"#. c #DCBDA4",
"$. c #D4BEAC",
"%. c #DAB5A7",
"&. c #C9BDB3",
"*. c #C3BBBD",
"=. c #CDBFBD",
"-. c #D6BEB5",
";. c #E6BCA3",
":. c #E0BEB2",
">. c #9AC8BA",
",. c #8AC3B2",
"<. c #A5CCBD",
"1. c #ADCDB7",
"2. c #BDD1BC",
"3. c #B5CBB1",
"4. c #D8C58B",
"5. c #DAC493",
"6. c #D8C599",
"7. c #CDC09C",
"8. c #E5C48D",
"9. c #EBC187",
"0. c #E3C291",
"q. c #EBC693",
"w. c #E7C799",
"e. c #D7C6A5",
"r. c #CEC3B8",
"t. c #DBCCB4",
"y. c #D2C7BC",
"u. c #DBCDBB",
"i. c #D8C7B6",
"p. c #DED2BC",
"a. c #DCD0B2",
"s. c #E6CCA5",
"d. c #EAC5AD",
"f. c #E6C5A7",
"g. c #E6D1AA",
"h. c #EDD8AD",
"j. c #E5CABB",
"k. c #E7C8B3",
"l. c #E2D2B5",
"z. c #E3D4BB",
"x. c #E6D9BC",
"c. c #E8D8B6",
"v. c #EDE1BC",
"b. c #9D9EC9",
"n. c #A5ABC2",
"m. c #B4AFC6",
"M. c #AAB4C5",
"N. c #ABB6C8",
"B. c #B1B9CA",
"V. c #BBB9C7",
"C. c #AEB0D3",
"Z. c #B5BDD3",
"A. c #C5BEC3",
"S. c #C8BFC9",
"D. c #C2BDD3",
"F. c #9CCEC5",
"G. c #93CEC9",
"H. c #95CDC4",
"J. c #9DD0C9",
"K. c #A6CEC2",
"L. c #ACD1C6",
"P. c #A4D1CA",
"I. c #ADD4CC",
"U. c #A7D1C6",
"Y. c #B9D3C3",
"T. c #BCD6CD",
"R. c #B4D3C8",
"E. c #BCC5D5",
"W. c #BCC4DC",
"Q. c #BEC8D6",
"!. c #A7D5D3",
"~. c #B6DAD9",
"^. c #B8D9D4",
"/. c #BDC0CB",
"(. c #C7C2C6",
"). c #CCC5C4",
"_. c #C5C2CC",
"`. c #C9C4C9",
"'. c #CECACC",
"]. c #CCCAC5",
"[. c #DCCCC2",
"{. c #D3CCCA",
"}. c #DBCCCA",
"|. c #D1CAC5",
" X c #C4D8CA",
".X c #C0D6C2",
"XX c #DCD3C3",
"oX c #DBD3CB",
"OX c #D7D4CA",
"+X c #C3C6D5",
"@X c #CDCCD3",
"#X c #C2C4DC",
"$X c #C5CCDA",
"%X c #CACAD6",
"&X c #D0CED3",
"*X c #CAD2DE",
"=X c #C6DDD7",
"-X c #D5D3D4",
";X c #DBD9DA",
":X c #DBD7D6",
">X c #E3CDC4",
",X c #E3D4C3",
"<X c #E4DAC3",
"1X c #EBDAC3",
"2X c #E6D8CA",
"3X c #E4DADB",
"4X c #E3DBD5",
"5X c #C6E0DE",
"6X c #ECE2C6",
"7X c #E7E7D7",
"8X c #CDD4E2",
"9X c #C8D9EC",
"0X c #D4D6E3",
"qX c #D3DAE5",
"wX c #D6DDE8",
"eX c #DBDCE6",
"rX c #DDE2EC",
"tX c #DDE6E2",
"yX c #CEE2F2",
"uX c #D3E8F6",
"iX c #E4ECE2",
"pX c #E7E9E9",
"aX c #E6F2EA",
"sX c #F9F8F5",
"dX c #F5EEE6",
/* pixels */
"                                                                                                    ",
"                                                                                                    ",
"                                                                                                    ",
"                -                               *.).                                                ",
"                6 3                         ;X;X'.).].E A.                  F A A C C q             ",
"                k 6                       _._.@X'.R (.*.|.E             K U *.&.&.&.@.S             ",
"              3  .l j j 1 ;               0X%XU R U K Y `.S.            &.y.y.r.r.].&.S S           ",
"        : 6 g  .X...X.h ;                 0X%X*.-X-X@XV F &XV.        r.r.u.u.XX|.u.e.&.            ",
"            g  ...o.( <                 A.S.R -X&X@X;XT V T R           <Xe.i.p.<Xp.e.7.            ",
"              X. .l k <                   &XS.).@X`.+X/.M I D.          <Xa.e.t.XX<Xp.XX            ",
"              k < - ^ k 6                 ;XA.A.V.T /.U M Y               x.z.u.t.t.p.OX            ",
"              < &     ^ k -                 ).).*.(.&XL I                   x.x.l.a.<XOX            ",
"              &                                                               x.x.x.<X              ",
"                                                                                                    ",
"                                                                                                    ",
"                                                                                  c.                ",
"          }.                      _ Z D b.C.Z.#X                                  5.                ",
"        -X3Xi.                    +.[ P Z.8XrXeX                                  4.                ",
"          }.>X%.                G n.Y $.}.rXrXwX                , >               6.                ",
"          }.3X%.,X            *.A.D.8X-Xj.eXrX                  >               4.6.a.6.7.e.        ",
"          }.3X%.>Xk.          C.#X8XrX    }.                    :         4.4.` 4.7.6.a.            ",
"          }.3X] ] ;.        W.#X0X0XrX                                            4.6.              ",
"          }.{.%.] ;.j.                                                          v 4.l.4.            ",
"          :X}.[.] -.]                         1 1 ~ 2 5 =                       `       5.          ",
"            3X{.' Z '                       1 3 4 ~ h 4 4 =                   4.                    ",
"              A.Z ' @.                    1 3 a / ../ j 4 p =                 4.                    ",
"                  i.=.                    k l o.;.d.;. .! p 5                                       ",
"                    -.                    ( o.k.j.k.;.d.O.~ 2 +                                     ",
"                                            X.k.>Xd.j.j.;.! p O               M.Z.qX*XqX            ",
"                                            = O.>Xj.>Xj.d.! = X           M.Q.E.E.$XqXqXQ.          ",
"                                            & 3 k.k.k.;.| ! =           J N.$X;X*X$X*XrX8XE.        ",
"                                              * / O.f $                 E.*X*X*XyX$XE.*X8X          ",
"                  u y r r r                     $ + X                 $XQ.qXrXwXrXqX$XQ.$X          ",
"                8 r m z n n b b                                         M.B.Q.E.Q.qX*X*X            ",
"                { z 8.w.9.m m m n                                       I I B.B.B.*XZ.              ",
"              +.i.O.s.1Xh.h.q.q.l.            .X XY.,.<.L.                  I n.M.                  ",
"            i.u.-.f.f.1Xj.6Xd.c.            Y.=X=X=XF.I.L.K.                                        ",
"              2X$.f.O.x.d.h.k.            <.I.~.=X5X!.~.I.R.                                        ",
"                u.u.k.z.2X7X              L.!.G.P.P.P.~.!.P.Y.                                      ",
"                  7XpXdX                H.G.G.F.^.U.L.<.N F.Y.                S.$XuXuXuXyX          ",
"                                          !.F.=XR.T.L.2.B F.2.            g.@.P W.9XyXuXuX9XW.W.    ",
"                                          ~.P.^.T.T.>.1.H K.          v q.h.p.].V.+X$X$X%X'.{.&X    ",
"            @ #                           I.=XU.R.>.H W             4.q.h.v.7XaXiXtX:Xu.[ |         ",
"        0 0 w @ 8 8 9 % 8 d                 2.1.K.K.3.      sX  g.0.8.8.v.6X7XiXiXiX7X#.Q           ",
"        o o e 9 w d i z x f.{ 0.5.w.{ e.                  sX1X0.8.s.{ 0.f.c.<X7XiX4X<X}             ",
"        t . i i 8 d i i c x _ x ` )                       sXdX1Xf.{ x x ) ) e.t.2XXX+.              ",
"                                                                            [ } e.@.                ",
"                                                                                                    ",
"                                                                                                    ",
"                                                                                                    "
};
