/* XPM */
static char *_11675245163[] = {
/* columns rows colors chars-per-pixel */
"50 50 223 2 ",
"   c None",
".  c #060707",
"X  c #08090A",
"o  c #090A0A",
"O  c #090A0B",
"+  c #0A0B0B",
"@  c #090A0C",
"#  c #090B0F",
"$  c #0A0B0E",
"%  c #0B0C0F",
"&  c #0C0C0D",
"*  c #0A0C10",
"=  c #0F0F10",
"-  c #0B1017",
";  c #171515",
":  c #10141D",
">  c #18191E",
",  c #201C1B",
"<  c #0D1523",
"1  c #081325",
"2  c #0C162B",
"3  c #151C2B",
"4  c #0C1A36",
"5  c #0E1D38",
"6  c #0C1D3D",
"7  c #1F222C",
"8  c #13233D",
"9  c #282220",
"0  c #2D2524",
"q  c #322726",
"w  c #352B29",
"e  c #3D302C",
"r  c #202739",
"t  c #3F3331",
"y  c #383336",
"u  c #43332D",
"i  c #46322E",
"p  c #403331",
"a  c #413533",
"s  c #483730",
"d  c #4E3C37",
"f  c #493D3D",
"g  c #583535",
"h  c #513B32",
"j  c #563F37",
"k  c #583F37",
"l  c #682224",
"z  c #682B2E",
"x  c #702021",
"c  c #672D31",
"v  c #6D3135",
"b  c #554039",
"n  c #5C4338",
"m  c #5F443D",
"M  c #60473F",
"N  c #64483B",
"B  c #6C4C3C",
"V  c #0C1F43",
"C  c #122648",
"Z  c #14294E",
"A  c #25314A",
"S  c #303343",
"D  c #263756",
"F  c #153260",
"G  c #2A4566",
"H  c #31466A",
"J  c #2C4773",
"K  c #444049",
"L  c #4F464B",
"P  c #564541",
"I  c #5B4C49",
"U  c #41455B",
"Y  c #5F505A",
"T  c #6A4446",
"R  c #644D43",
"E  c #6A4F42",
"W  c #674D4A",
"Q  c #614B4E",
"!  c #754447",
"~  c #6F5241",
"^  c #6A524C",
"/  c #755645",
"(  c #795441",
")  c #7F5A45",
"_  c #705149",
"`  c #77594B",
"'  c #7B5D4B",
"]  c #734D58",
"[  c #6B5955",
"{  c #765251",
"}  c #725850",
"|  c #775C55",
" . c #79535C",
".. c #7E604C",
"X. c #7E6052",
"o. c #7D645F",
"O. c #434E6B",
"+. c #545163",
"@. c #5A596F",
"#. c #4D5778",
"$. c #665861",
"%. c #64596A",
"&. c #695D68",
"*. c #745E63",
"=. c #695B78",
"-. c #78656C",
";. c #7D6869",
":. c #7E6B6F",
">. c #676071",
",. c #6F677A",
"<. c #726874",
"1. c #796973",
"2. c #7B6D79",
"3. c #865F49",
"4. c #8B4E5E",
"5. c #8B5659",
"6. c #A14A5F",
"7. c #82634F",
"8. c #856651",
"9. c #896953",
"0. c #8E6955",
"q. c #8C6D56",
"w. c #82605A",
"e. c #84665A",
"r. c #87685E",
"t. c #8D6F59",
"y. c #956D59",
"u. c #8D705A",
"i. c #8F725C",
"p. c #92745E",
"a. c #9C705B",
"s. c #815B65",
"d. c #9A5F64",
"f. c #9B5C6D",
"g. c #8B5275",
"h. c #A0516A",
"j. c #A0577B",
"k. c #836760",
"l. c #8F6B60",
"z. c #8A6D63",
"x. c #966F62",
"c. c #997363",
"v. c #967864",
"b. c #987B64",
"n. c #90726B",
"m. c #93746F",
"M. c #99786E",
"N. c #9F786F",
"B. c #826672",
"V. c #8D6D79",
"C. c #847173",
"Z. c #817074",
"A. c #947D77",
"S. c #927879",
"D. c #A47967",
"F. c #A57B6B",
"G. c #A77E73",
"H. c #AA806F",
"J. c #A98378",
"K. c #AF897B",
"L. c #AD887F",
"P. c #3B5D91",
"I. c #3E6DA5",
"U. c #3F70AF",
"Y. c #425882",
"T. c #485D81",
"R. c #5E6382",
"E. c #406398",
"W. c #536C97",
"Q. c #586C94",
"!. c #6D6E88",
"~. c #706980",
"^. c #796C89",
"/. c #7B7183",
"(. c #74748C",
"). c #6B7599",
"_. c #797691",
"`. c #757D9E",
"'. c #426FAC",
"]. c #5872A2",
"[. c #4D78B0",
"{. c #4A7DBE",
"}. c #6B7FA5",
"|. c #6B7EA8",
" X c #3773C0",
".X c #367CD0",
"XX c #877682",
"oX c #877A88",
"OX c #937D82",
"+X c #5A84BE",
"@X c #7F82A2",
"#X c #7E87AA",
"$X c #7388AF",
"%X c #6686B7",
"&X c #6287BE",
"*X c #7E93BE",
"=X c #4182CE",
"-X c #5E8AC2",
";X c #5B8ECB",
":X c #4D8AD3",
">X c #5690D5",
",X c #5896D7",
"<X c #678BC0",
"1X c #6A8CC1",
"2X c #6C8EC1",
"3X c #6390CA",
"4X c #7F9BCE",
"5X c #6796D1",
"6X c #61A4EA",
"7X c #63B0F3",
"8X c #9E8488",
"9X c #8B8696",
"0X c #938A96",
"qX c #96889B",
"wX c #AD8D85",
"eX c #B59388",
"rX c #A89593",
"tX c #AC9B97",
"yX c #918EAE",
"uX c #9995A2",
"iX c #9A99AA",
"pX c #A6A4B0",
"aX c #AEB0C2",
/* pixels */
"                                                                                                    ",
"                                                                                                    ",
"                                                                                                    ",
"                                                                                                    ",
"                                                                                                    ",
"                                                                                                    ",
"                                                                                                    ",
"                                  * * X & X X + * *                                                 ",
"                              $ & + X . . . . . & & X &                                             ",
"                          + + . X X . . . . X + X & X . X                                           ",
"                        * + . . X + + & X X + & & = = X X *                                         ",
"                      $ X . . . X + + + + & & + = = : - & < 8                                       ",
"                      * X X $ + X X X + . & & & X & - < - 5 C F                                     ",
"                      X X X . X + & = = & ; ; = & & & - : 5 2 C H                                   ",
"                    $ . . . & & ; q e u u h h u e 9 , ; - 1 2 V F                                   ",
"                    X . . + ; 9 n B ) 3.3.3.) 3.3._ P y > ; < 2 C r                                 ",
"                    X & * 0 u N 7.y.y.a.a.a.a.a.a.z.2.R.O.> X - V 6                                 ",
"                  & . X ; s B ) y.D.D.D.F.D.D.F.D.m.oX`.Q.7 + 1 5 4                                 ",
"                  * X $ ; h ( 3.y.D.F.H.H.H.H.F.D.n.XX@XQ.> - 5 1 5                                 ",
"                  X . X ; n ) 9.c.K.K.K.K.K.K.J.F.m.oX@X#.3 5 5 1 6                                 ",
"                  * . + > n ~ } m.wXeXeXeXeXeXeXL.S.oXyXY.3 5 V V                                   ",
"                  + + & w e 0 0 t L ;.wXeXwXn.[ I K K %X-X3 5 V Z                                   ",
"                  q - ; e e P ^ M s P m.wXM.^ u t f K O.;XG 2 C U                                   ",
"                  N , , d n u a a P N 7.J.c.` R P P Q >.-XI.2 D =.                                  ",
"                  T u 9 n j e K y $.j / F.q.B [ K y U +.$X,XC U (.                                  ",
"                  W j w R / ~ ^ | ` B 7.J.y.( ` [ | <.<.$X7XG I 1.                                  ",
"                  k j a R X.x.x.x.0.3.r.J.OXq.y.y.x.x.S.yX7X[.$.W                                   ",
"                    j p R w.N.G.G.x.` l.F.9Xn.D.H.H.G.qX4X6X;X>.}.                                  ",
"                    b s R e.N.wXJ.z.` M.wXqX:.x.L.wX8XyX4X6X;X}.5X                                  ",
"                    M d R ' N.wXF.5.X.m.J.S.oXl.G.wX8XyX4X,XW._.                                    ",
"                      p m / x.J.F.x.^ ^ | ^ w.M.F.G.OX@X$X:XT.1.                                    ",
"                        P E 9.k.` | j f P d R | ^ 5.oX~.).{.                                        ",
"                        b E ' P e d R ^ { { / j e j /.$.).'.                                        ",
"                        p n ` e.h P A.rXtXrXA.P N e.,.$.W.                                          ",
"                        r s E e.X.N  .wXrX8X5.} a.r.=.@.E.                                          ",
"                          w j ` r.| ! 5.5.5. .:.z.-.+.Y.U.                                          ",
"                          e u M ` e._ P R _ o.C.-.%.#.P.+X                                          ",
"                          h u h R w.x.e.e.t.n.C.,.#.Y.].&X                                          ",
"                          n h e d } k.n.M.z.;.%.#.Y.R.).&X                                          ",
"                          n N u 9 y f I I P f S D O.>.).&X                                          ",
"                        k N / N w > 9 w w w 9 7 U $.-.).-X                                          ",
"                        g E / / N e , , , , 0 L >.o.;.`.3X                                          ",
"                      p h ~ ' 8.' ~ P n n M ^ *.k.z.Z.`.;X{.H H                                     ",
"                g u i h j ~ 7.t.u.7.....7.....o.i.v.Z.`.-X;X[.O.=.^.                                ",
"            T ] s.[ n n n / ..u.v.u.q.i.p.p.u.u.v.v.C.`.1X;X%XQ g._.~.=.#X                          ",
"      z T v B.s.uXC.B N N / ' 8.p.i.u.p.b.v.i.x.b.p.Z._.%X;X|.{ j.V./.!.|.!.(.^.                    ",
"  z c s.B.B.0XB.pX;.B B ~ 8.7...q.i.i.u.i.q.t.i.i.e.;./.|.2X!.4.j.d.V.,.~.!.,.,.|.1X&X              ",
"l x ! iX9XuX9XiXuX0X[ ~ ` q.u.7.8.u.u.q.9.9.t.i.9.' e.Z._.`.*.6.h.d.2.%.{ &.%.$.%.R.|.3X            ",
"x x v  .XX9X2.uXXXaXoXE ' t.b.u.8.t.q.8.7.8.9.9.7.8.t.C.Z.;.B.f.4.-.*.Y Q @.O.A A D J I.:X>X        ",
"x x x ! 8X/.OXXX .8Xf.! ~ 9.p.i.q.p.p.y.t.q.0.q.9.t.t.k.' OXaXiX/.*.+.O.+.@.K A D D D P. X.X=X      "
};
